<?xml version="1.0" encoding="UTF-8"?>
<!--Generator: Apple Native CoreSVG 341-->
<!DOCTYPE svg
PUBLIC "-//W3C//DTD SVG 1.1//EN"
       "http://www.w3.org/Graphics/SVG/1.1/DTD/svg11.dtd">
<svg version="1.1" xmlns="http://www.w3.org/2000/svg" xmlns:xlink="http://www.w3.org/1999/xlink" viewBox="0 0 3300 2200">
 <!--glyph: "100269", point size: 100.0, font version: "20.0d10e1", template writer version: "138.0.0"-->
 <style>.SFSymbolsPreviewWireframe {fill:none;opacity:1.0;stroke:black;stroke-width:0.5}
</style>
 <g id="Notes">
  <rect height="2200" id="artboard" style="fill:white;opacity:1" width="3300" x="0" y="0"/>
  <line style="fill:none;stroke:black;opacity:1;stroke-width:0.5;" x1="263" x2="3036" y1="292" y2="292"/>
  <text style="stroke:none;fill:black;font-family:sans-serif;font-size:13;font-weight:bold;" transform="matrix(1 0 0 1 263 322)">Weight/Scale Variations</text>
  <text style="stroke:none;fill:black;font-family:sans-serif;font-size:13;text-anchor:middle;" transform="matrix(1 0 0 1 559.711 322)">Ultralight</text>
  <text style="stroke:none;fill:black;font-family:sans-serif;font-size:13;text-anchor:middle;" transform="matrix(1 0 0 1 856.422 322)">Thin</text>
  <text style="stroke:none;fill:black;font-family:sans-serif;font-size:13;text-anchor:middle;" transform="matrix(1 0 0 1 1153.13 322)">Light</text>
  <text style="stroke:none;fill:black;font-family:sans-serif;font-size:13;text-anchor:middle;" transform="matrix(1 0 0 1 1449.84 322)">Regular</text>
  <text style="stroke:none;fill:black;font-family:sans-serif;font-size:13;text-anchor:middle;" transform="matrix(1 0 0 1 1746.56 322)">Medium</text>
  <text style="stroke:none;fill:black;font-family:sans-serif;font-size:13;text-anchor:middle;" transform="matrix(1 0 0 1 2043.27 322)">Semibold</text>
  <text style="stroke:none;fill:black;font-family:sans-serif;font-size:13;text-anchor:middle;" transform="matrix(1 0 0 1 2339.98 322)">Bold</text>
  <text style="stroke:none;fill:black;font-family:sans-serif;font-size:13;text-anchor:middle;" transform="matrix(1 0 0 1 2636.69 322)">Heavy</text>
  <text style="stroke:none;fill:black;font-family:sans-serif;font-size:13;text-anchor:middle;" transform="matrix(1 0 0 1 2933.4 322)">Black</text>
  <line style="fill:none;stroke:black;opacity:1;stroke-width:0.5;" x1="263" x2="3036" y1="1903" y2="1903"/>
  <g transform="matrix(0.2 0 0 0.2 263 1933)">
   <path d="m46.2402 4.15039c21.7773 0 39.4531-17.627 39.4531-39.4043s-17.6758-39.4043-39.4531-39.4043c-21.7285 0-39.4043 17.627-39.4043 39.4043s17.6758 39.4043 39.4043 39.4043Zm0-7.42188c-17.6758 0-31.9336-14.3066-31.9336-31.9824s14.2578-31.9824 31.9336-31.9824 31.9824 14.3066 31.9824 31.9824-14.3066 31.9824-31.9824 31.9824Zm-17.9688-31.9824c0 2.14844 1.51367 3.61328 3.75977 3.61328h10.498v10.5957c0 2.19727 1.46484 3.71094 3.61328 3.71094 2.24609 0 3.71094-1.51367 3.71094-3.71094v-10.5957h10.5957c2.19727 0 3.71094-1.46484 3.71094-3.61328 0-2.19727-1.51367-3.71094-3.71094-3.71094h-10.5957v-10.5469c0-2.24609-1.46484-3.75977-3.71094-3.75977-2.14844 0-3.61328 1.51367-3.61328 3.75977v10.5469h-10.498c-2.24609 0-3.75977 1.51367-3.75977 3.71094Z"/>
  </g>
  <g transform="matrix(0.2 0 0 0.2 281.506 1933)">
   <path d="m58.5449 14.5508c27.4902 0 49.8047-22.3145 49.8047-49.8047s-22.3145-49.8047-49.8047-49.8047-49.8047 22.3145-49.8047 49.8047 22.3145 49.8047 49.8047 49.8047Zm0-8.30078c-22.9492 0-41.5039-18.5547-41.5039-41.5039s18.5547-41.5039 41.5039-41.5039 41.5039 18.5547 41.5039 41.5039-18.5547 41.5039-41.5039 41.5039Zm-22.6562-41.5039c0 2.39258 1.66016 4.00391 4.15039 4.00391h14.3555v14.4043c0 2.44141 1.66016 4.15039 4.05273 4.15039 2.44141 0 4.15039-1.66016 4.15039-4.15039v-14.4043h14.4043c2.44141 0 4.15039-1.61133 4.15039-4.00391 0-2.44141-1.70898-4.15039-4.15039-4.15039h-14.4043v-14.3555c0-2.49023-1.70898-4.19922-4.15039-4.19922-2.39258 0-4.05273 1.70898-4.05273 4.19922v14.3555h-14.3555c-2.49023 0-4.15039 1.70898-4.15039 4.15039Z"/>
  </g>
  <g transform="matrix(0.2 0 0 0.2 304.924 1933)">
   <path d="m74.8535 28.3203c35.1074 0 63.623-28.4668 63.623-63.5742s-28.5156-63.623-63.623-63.623-63.5742 28.5156-63.5742 63.623 28.4668 63.5742 63.5742 63.5742Zm0-9.08203c-30.127 0-54.4922-24.3652-54.4922-54.4922s24.3652-54.4922 54.4922-54.4922 54.4922 24.3652 54.4922 54.4922-24.3652 54.4922-54.4922 54.4922Zm-28.8574-54.4922c0 2.58789 1.85547 4.39453 4.58984 4.39453h19.7266v19.7754c0 2.68555 1.85547 4.58984 4.44336 4.58984 2.68555 0 4.54102-1.85547 4.54102-4.58984v-19.7754h19.7754c2.68555 0 4.58984-1.80664 4.58984-4.39453 0-2.73438-1.85547-4.58984-4.58984-4.58984h-19.7754v-19.7266c0-2.73438-1.85547-4.63867-4.54102-4.63867-2.58789 0-4.44336 1.9043-4.44336 4.63867v19.7266h-19.7266c-2.73438 0-4.58984 1.85547-4.58984 4.58984Z"/>
  </g>
  <text style="stroke:none;fill:black;font-family:sans-serif;font-size:13;font-weight:bold;" transform="matrix(1 0 0 1 263 1953)">Design Variations</text>
  <text style="stroke:none;fill:black;font-family:sans-serif;font-size:13;" transform="matrix(1 0 0 1 263 1971)">Symbols are supported in up to nine weights and three scales.</text>
  <text style="stroke:none;fill:black;font-family:sans-serif;font-size:13;" transform="matrix(1 0 0 1 263 1989)">For optimal layout with text and other symbols, vertically align</text>
  <text style="stroke:none;fill:black;font-family:sans-serif;font-size:13;" transform="matrix(1 0 0 1 263 2007)">symbols with the adjacent text.</text>
  <line style="fill:none;stroke:#00AEEF;stroke-width:0.5;opacity:1.0;" x1="776" x2="776" y1="1919" y2="1933"/>
  <g transform="matrix(0.2 0 0 0.2 776 1933)">
   <path d="m16.5527 0.78125c2.58789 0 3.85742-0.976562 4.78516-3.71094l6.29883-17.2363h28.8086l6.29883 17.2363c0.927734 2.73438 2.19727 3.71094 4.73633 3.71094 2.58789 0 4.24805-1.5625 4.24805-4.00391 0-0.830078-0.146484-1.61133-0.537109-2.63672l-22.9004-60.9863c-1.12305-2.97852-3.125-4.49219-6.25-4.49219-3.02734 0-5.07812 1.46484-6.15234 4.44336l-22.9004 61.084c-0.390625 1.02539-0.537109 1.80664-0.537109 2.63672 0 2.44141 1.5625 3.95508 4.10156 3.95508Zm13.4766-28.3691 11.8652-32.8613h0.244141l11.8652 32.8613Z"/>
  </g>
  <line style="fill:none;stroke:#00AEEF;stroke-width:0.5;opacity:1.0;" x1="792.836" x2="792.836" y1="1919" y2="1933"/>
  <text style="stroke:none;fill:black;font-family:sans-serif;font-size:13;font-weight:bold;" transform="matrix(1 0 0 1 776 1953)">Margins</text>
  <text style="stroke:none;fill:black;font-family:sans-serif;font-size:13;" transform="matrix(1 0 0 1 776 1971)">Leading and trailing margins on the left and right side of each symbol</text>
  <text style="stroke:none;fill:black;font-family:sans-serif;font-size:13;" transform="matrix(1 0 0 1 776 1989)">can be adjusted by modifying the x-location of the margin guidelines.</text>
  <text style="stroke:none;fill:black;font-family:sans-serif;font-size:13;" transform="matrix(1 0 0 1 776 2007)">Modifications are automatically applied proportionally to all</text>
  <text style="stroke:none;fill:black;font-family:sans-serif;font-size:13;" transform="matrix(1 0 0 1 776 2025)">scales and weights.</text>
  <g transform="matrix(0.2 0 0 0.2 1289 1933)">
   <path d="m14.209 9.32617 8.49609 8.54492c4.29688 4.3457 9.22852 4.05273 13.8672-1.07422l53.4668-58.9355-4.83398-4.88281-53.0762 58.3984c-1.75781 2.00195-3.41797 2.49023-5.76172 0.146484l-5.85938-5.81055c-2.34375-2.29492-1.80664-4.00391 0.195312-5.81055l57.373-54.0039-4.88281-4.83398-57.959 54.4434c-4.93164 4.58984-5.32227 9.47266-1.02539 13.8184Zm32.0801-90.9668c-2.09961 2.05078-2.24609 4.93164-1.07422 6.88477 1.17188 1.80664 3.4668 2.97852 6.68945 2.14844 7.32422-1.70898 14.9414-2.00195 22.0703 2.68555l-2.92969 7.27539c-1.70898 4.15039-0.830078 7.08008 1.85547 9.81445l11.4746 11.5723c2.44141 2.44141 4.49219 2.53906 7.32422 2.05078l5.32227-0.976562 3.32031 3.36914-0.195312 2.7832c-0.195312 2.49023 0.439453 4.39453 2.88086 6.78711l3.80859 3.71094c2.39258 2.39258 5.46875 2.53906 7.8125 0.195312l14.5508-14.5996c2.34375-2.34375 2.24609-5.32227-0.146484-7.71484l-3.85742-3.80859c-2.39258-2.39258-4.24805-3.17383-6.64062-2.97852l-2.88086 0.244141-3.22266-3.17383 1.2207-5.61523c0.634766-2.83203-0.146484-5.0293-3.07617-7.95898l-10.9863-10.9375c-16.6992-16.6016-38.8672-16.2109-53.3203-1.75781Zm7.4707 1.85547c12.1582-8.88672 28.6133-7.37305 39.7461 3.75977l12.1582 12.0605c1.17188 1.17188 1.36719 2.09961 1.02539 3.80859l-1.61133 7.42188 7.51953 7.42188 4.93164-0.292969c1.26953-0.0488281 1.66016 0.0488281 2.63672 1.02539l2.88086 2.88086-12.207 12.207-2.88086-2.88086c-0.976562-0.976562-1.12305-1.36719-1.07422-2.68555l0.341797-4.88281-7.4707-7.42188-7.61719 1.26953c-1.61133 0.341797-2.34375 0.195312-3.56445-0.976562l-10.0098-10.0098c-1.26953-1.17188-1.41602-2.00195-0.634766-3.85742l4.39453-10.4492c-7.8125-7.27539-17.9688-10.4004-28.125-7.42188-0.78125 0.195312-1.07422-0.439453-0.439453-0.976562Z"/>
  </g>
  <text style="stroke:none;fill:black;font-family:sans-serif;font-size:13;font-weight:bold;" transform="matrix(1 0 0 1 1289 1953)">Exporting</text>
  <text style="stroke:none;fill:black;font-family:sans-serif;font-size:13;" transform="matrix(1 0 0 1 1289 1971)">Symbols should be outlined when exporting to ensure the</text>
  <text style="stroke:none;fill:black;font-family:sans-serif;font-size:13;" transform="matrix(1 0 0 1 1289 1989)">design is preserved when submitting to Xcode.</text>
  <text id="template-version" style="stroke:none;fill:black;font-family:sans-serif;font-size:13;text-anchor:end;" transform="matrix(1 0 0 1 3036 1933)">Template v.6.0</text>
  <text style="stroke:none;fill:black;font-family:sans-serif;font-size:13;text-anchor:end;" transform="matrix(1 0 0 1 3036 1951)">Requires Xcode 16 or greater</text>
  <text id="descriptive-name" style="stroke:none;fill:black;font-family:sans-serif;font-size:13;text-anchor:end;" transform="matrix(1 0 0 1 3036 1969)">Generated from person</text>
  <text style="stroke:none;fill:black;font-family:sans-serif;font-size:13;text-anchor:end;" transform="matrix(1 0 0 1 3036 1987)">Typeset at 100.0 points</text>
  <text style="stroke:none;fill:black;font-family:sans-serif;font-size:13;" transform="matrix(1 0 0 1 263 726)">Small</text>
  <text style="stroke:none;fill:black;font-family:sans-serif;font-size:13;" transform="matrix(1 0 0 1 263 1156)">Medium</text>
  <text style="stroke:none;fill:black;font-family:sans-serif;font-size:13;" transform="matrix(1 0 0 1 263 1586)">Large</text>
 </g>
 <g id="Guides">
  <g id="H-reference" style="fill:#27AAE1;stroke:none;" transform="matrix(1 0 0 1 339 696)">
   <path d="M0.993654 0L3.63775 0L29.3281-67.1323L30.0303-67.1323L30.0303-70.459L28.1226-70.459ZM11.6885-24.4799L46.9815-24.4799L46.2315-26.7285L12.4385-26.7285ZM55.1196 0L57.7637 0L30.6382-70.459L29.4326-70.459L29.4326-67.1323Z"/>
  </g>
  <line id="Baseline-S" style="fill:none;stroke:#27AAE1;opacity:1;stroke-width:0.5;" x1="263" x2="3036" y1="696" y2="696"/>
  <line id="Capline-S" style="fill:none;stroke:#27AAE1;opacity:1;stroke-width:0.5;" x1="263" x2="3036" y1="625.541" y2="625.541"/>
  <g id="H-reference" style="fill:#27AAE1;stroke:none;" transform="matrix(1 0 0 1 339 1126)">
   <path d="M0.993654 0L3.63775 0L29.3281-67.1323L30.0303-67.1323L30.0303-70.459L28.1226-70.459ZM11.6885-24.4799L46.9815-24.4799L46.2315-26.7285L12.4385-26.7285ZM55.1196 0L57.7637 0L30.6382-70.459L29.4326-70.459L29.4326-67.1323Z"/>
  </g>
  <line id="Baseline-M" style="fill:none;stroke:#27AAE1;opacity:1;stroke-width:0.5;" x1="263" x2="3036" y1="1126" y2="1126"/>
  <line id="Capline-M" style="fill:none;stroke:#27AAE1;opacity:1;stroke-width:0.5;" x1="263" x2="3036" y1="1055.54" y2="1055.54"/>
  <g id="H-reference" style="fill:#27AAE1;stroke:none;" transform="matrix(1 0 0 1 339 1556)">
   <path d="M0.993654 0L3.63775 0L29.3281-67.1323L30.0303-67.1323L30.0303-70.459L28.1226-70.459ZM11.6885-24.4799L46.9815-24.4799L46.2315-26.7285L12.4385-26.7285ZM55.1196 0L57.7637 0L30.6382-70.459L29.4326-70.459L29.4326-67.1323Z"/>
  </g>
  <line id="Baseline-L" style="fill:none;stroke:#27AAE1;opacity:1;stroke-width:0.5;" x1="263" x2="3036" y1="1556" y2="1556"/>
  <line id="Capline-L" style="fill:none;stroke:#27AAE1;opacity:1;stroke-width:0.5;" x1="263" x2="3036" y1="1485.54" y2="1485.54"/>
  <line id="right-margin-Regular-M" style="fill:none;stroke:#00AEEF;stroke-width:0.5;opacity:1.0;" x1="1504.94" x2="1504.94" y1="1030.79" y2="1150.12"/>
  <line id="left-margin-Regular-M" style="fill:none;stroke:#00AEEF;stroke-width:0.5;opacity:1.0;" x1="1394.75" x2="1394.75" y1="1030.79" y2="1150.12"/>
 </g>
 <g id="Symbols">
  <g id="Black-L" transform="matrix(1 0 0 1 2860.7 1556)">
   <path class="SFSymbolsPreviewWireframe" d="M34.4786 25.3044L110.924 25.3044C123.167 25.3044 129.32 20.969 129.32 11.9494C129.32-7.76632 105.323-28.5016 72.7012-28.5016C40.1012-28.5016 16.084-7.76632 16.084 11.9494C16.084 20.969 22.2563 25.3044 34.4786 25.3044ZM35.4705 9.59922C34.5784 9.59922 34.3128 9.10997 34.3128 8.4791C34.3128 1.26289 48.5163-12.7964 72.7012-12.7964C96.8872-12.7964 111.091 1.26289 111.091 8.4791C111.091 9.10997 110.825 9.59922 109.932 9.59922ZM72.7036-34.2459C88.7635-34.2459 101.497-48.0478 101.497-65.2992C101.497-82.0701 88.5655-95.8426 72.7036-95.8426C56.8833-95.8426 43.9117-82.0065 43.9117-65.2575C43.9117-48.027 56.6657-34.2459 72.7036-34.2459ZM72.7036-49.9303C65.6986-49.9303 59.8042-56.0132 59.8042-65.3159C59.8042-74.0202 65.815-80.1374 72.7036-80.1374C79.6702-80.1374 85.6041-74.063 85.6041-65.2992C85.6041-56.0549 79.8086-49.9303 72.7036-49.9303Z"/>
  </g>
  <g id="Heavy-L" transform="matrix(1 0 0 1 2564.41 1556)">
   <path class="SFSymbolsPreviewWireframe" d="M33.6572 24.7231L110.894 24.7231C122.641 24.7231 128.472 20.6844 128.472 12.198C128.472-6.75567 105.237-28.2115 72.2753-28.2115C39.3491-28.2115 16.084-6.75567 16.084 12.198C16.084 20.6844 21.9397 24.7231 33.6572 24.7231ZM33.777 10.6179C32.6283 10.6179 32.2457 10.1308 32.2457 9.28968C32.2457 1.22232 46.9292-14.1063 72.2753-14.1063C97.6271-14.1063 112.311 1.22232 112.311 9.28968C112.311 10.1308 111.928 10.6179 110.774 10.6179ZM72.2866-34.5013C88.0823-34.5013 100.658-48.1641 100.658-65.164C100.658-81.7452 87.9361-95.2569 72.2866-95.2569C56.6974-95.2569 43.9205-81.649 43.9205-65.1036C43.9205-48.1339 56.5266-34.5013 72.2866-34.5013ZM72.2866-48.5762C64.6974-48.5762 58.2973-55.348 58.2973-65.1482C58.2973-74.4349 64.7576-81.1517 72.2866-81.1517C79.8847-81.1517 86.2814-74.5009 86.2814-65.164C86.2814-55.4083 79.9807-48.5762 72.2866-48.5762Z"/>
  </g>
  <g id="Bold-L" transform="matrix(1 0 0 1 2268.26 1556)">
   <path class="SFSymbolsPreviewWireframe" d="M32.5161 23.971L110.9 23.971C121.943 23.971 127.345 20.2937 127.345 12.4681C127.345-5.62244 104.981-27.828 71.708-27.828C38.4863-27.828 16.084-5.62244 16.084 12.4681C16.084 20.2937 21.5105 23.971 32.5161 23.971ZM31.7836 11.9154C30.2006 11.9154 29.6496 11.3986 29.6496 10.2366C29.6496 1.02704 44.977-15.7724 71.708-15.7724C98.4522-15.7724 113.78 1.02704 113.78 10.2366C113.78 11.3986 113.229 11.9154 111.632 11.9154ZM71.7344-34.8163C87.1999-34.8163 99.5464-48.2728 99.5464-64.9726C99.5464-81.2934 87.0929-94.4972 71.7344-94.4972C56.452-94.4972 43.9357-81.1662 43.9357-64.8967C43.9357-48.2348 56.3202-34.8163 71.7344-34.8163ZM71.7344-46.834C63.3634-46.834 56.3333-54.4512 56.3333-64.9259C56.3333-74.9497 63.3767-82.4416 71.7344-82.4416C80.1461-82.4416 87.1488-75.0389 87.1488-64.9726C87.1488-54.5272 80.2107-46.834 71.7344-46.834Z"/>
  </g>
  <g id="Semibold-L" transform="matrix(1 0 0 1 1971.94 1556)">
   <path class="SFSymbolsPreviewWireframe" d="M31.7295 23.4526L110.904 23.4526C121.462 23.4526 126.568 20.0243 126.568 12.6543C126.568-4.8412 104.804-27.5637 71.3168-27.5637C37.8915-27.5637 16.084-4.8412 16.084 12.6543C16.084 20.0243 21.2147 23.4526 31.7295 23.4526ZM30.4094 12.8099C28.5269 12.8099 27.8599 12.2725 27.8599 10.8894C27.8599 0.892424 43.6312-16.9209 71.3168-16.9209C99.0209-16.9209 114.792 0.892424 114.792 10.8894C114.792 12.2725 114.125 12.8099 112.224 12.8099ZM71.3538-35.0336C86.5915-35.0336 98.7798-48.3477 98.7798-64.8407C98.7798-80.9819 86.5115-93.9735 71.3538-93.9735C56.2828-93.9735 43.9462-80.8333 43.9462-64.754C43.9462-48.3043 56.1779-35.0336 71.3538-35.0336ZM71.3538-45.6329C62.4437-45.6329 54.9793-53.833 54.9793-64.7726C54.9793-75.3046 62.4247-83.3308 71.3538-83.3308C80.3263-83.3308 87.7468-75.4098 87.7468-64.8407C87.7468-53.9197 80.3692-45.6329 71.3538-45.6329Z"/>
  </g>
  <g id="Medium-L" transform="matrix(1 0 0 1 1675.52 1556)">
   <path class="SFSymbolsPreviewWireframe" d="M31.133 23.0595L110.908 23.0595C121.098 23.0595 125.979 19.8201 125.979 12.7955C125.979-4.24883 104.67-27.3632 71.0202-27.3632C37.4406-27.3632 16.084-4.24883 16.084 12.7955C16.084 19.8201 20.9903 23.0595 31.133 23.0595ZM29.3674 13.4881C27.2578 13.4881 26.5029 12.9352 26.5029 11.3843C26.5029 0.790349 42.6108-17.7918 71.0202-17.7918C99.4522-17.7918 115.56 0.790349 115.56 11.3843C115.56 12.9352 114.805 13.4881 112.673 13.4881ZM71.0652-35.1983C86.1302-35.1983 98.1986-48.4045 98.1986-64.7407C98.1986-80.7457 86.0707-93.5764 71.0652-93.5764C56.1545-93.5764 43.9542-80.5809 43.9542-64.6458C43.9542-48.357 56.07-35.1983 71.0652-35.1983ZM71.0652-44.7222C61.7463-44.7222 53.9526-53.3642 53.9526-64.6563C53.9526-75.5737 61.7029-84.005 71.0652-84.005C80.463-84.005 88.2002-75.6911 88.2002-64.7407C88.2002-53.4591 80.4895-44.7222 71.0652-44.7222Z"/>
  </g>
  <g id="Regular-L" transform="matrix(1 0 0 1 1379.2 1556)">
   <path class="SFSymbolsPreviewWireframe" d="M30.355 22.5467L110.912 22.5467C120.622 22.5467 125.21 19.5537 125.21 12.9797C125.21-3.47618 104.495-27.1018 70.6334-27.1018C36.8523-27.1018 16.084-3.47618 16.084 12.9797C16.084 19.5537 20.6977 22.5467 30.355 22.5467ZM28.0083 14.3727C25.6026 14.3727 24.7328 13.7996 24.7328 12.03C24.7328 0.657208 41.2797-18.9278 70.6334-18.9278C100.015-18.9278 116.562 0.657208 116.562 12.03C116.562 13.7996 115.692 14.3727 113.259 14.3727ZM70.6887-35.4131C85.5285-35.4131 97.4405-48.4786 97.4405-64.6102C97.4405-80.4376 85.4958-93.0585 70.6887-93.0585C55.9872-93.0585 43.9646-80.2517 43.9646-64.5047C43.9646-48.4258 55.9293-35.4131 70.6887-35.4131ZM70.6887-43.5343C60.8367-43.5343 52.6135-52.7528 52.6135-64.5047C52.6135-75.9247 60.7614-84.8845 70.6887-84.8845C80.6412-84.8845 88.7916-76.0579 88.7916-64.6102C88.7916-52.8583 80.6463-43.5343 70.6887-43.5343Z"/>
  </g>
  <g id="Light-L" transform="matrix(1 0 0 1 1083.13 1556)">
   <path class="SFSymbolsPreviewWireframe" d="M28.7709 21.8215L111.198 21.8215C119.839 21.8215 123.932 19.0384 123.932 12.9224C123.932-3.45709 103.35-26.6819 69.9845-26.6819C36.6996-26.6819 16.084-3.45709 16.084 12.9224C16.084 19.0384 20.1633 21.8215 28.7709 21.8215ZM27.3021 15.4988C23.8467 15.4988 22.7098 14.6966 22.7098 12.3162C22.7098-0.411568 40.0201-20.3592 69.9845-20.3592C99.9956-20.3592 117.306-0.411568 117.306 12.3162C117.306 14.6966 116.169 15.4988 112.667 15.4988ZM70.078-35.623C84.6697-35.623 96.2-48.3259 96.2-64.3239C96.2-79.8078 84.5034-92.3141 70.078-92.3141C55.72-92.3141 44.0028-79.6601 44.0028-64.2566C44.0028-48.2922 55.5667-35.623 70.078-35.623ZM70.078-41.9121C59.3099-41.9121 50.6286-51.6649 50.6286-64.2566C50.6286-76.2873 59.3491-85.9914 70.078-85.9914C80.7939-85.9914 89.5741-76.4014 89.5741-64.3239C89.5741-51.7323 80.9135-41.9121 70.078-41.9121Z"/>
  </g>
  <g id="Thin-L" transform="matrix(1 0 0 1 787.26 1556)">
   <path class="SFSymbolsPreviewWireframe" d="M26.6758 20.8623L111.577 20.8623C118.804 20.8623 122.241 18.3569 122.241 12.8467C122.241-3.43185 101.835-26.1266 69.1263-26.1266C36.4977-26.1266 16.084-3.43185 16.084 12.8467C16.084 18.3569 19.4566 20.8623 26.6758 20.8623ZM26.3682 16.988C21.5245 16.988 20.0342 15.883 20.0342 12.6949C20.0342-1.82511 38.3541-22.2523 69.1263-22.2523C99.9704-22.2523 118.29-1.82511 118.29 12.6949C118.29 15.883 116.8 16.988 111.884 16.988ZM69.2702-35.9007C83.5338-35.9007 94.5592-48.124 94.5592-63.9453C94.5592-78.9749 83.1908-91.3297 69.2702-91.3297C55.3666-91.3297 44.0532-78.8776 44.0532-63.9284C44.0532-48.1155 55.0871-35.9007 69.2702-35.9007ZM69.2702-39.7665C57.2905-39.7665 48.0034-50.2261 48.0034-63.9284C48.0034-76.7669 57.4812-87.4555 69.2702-87.4555C80.9958-87.4555 90.609-76.8558 90.609-63.9453C90.609-50.243 81.2669-39.7665 69.2702-39.7665Z"/>
  </g>
  <g id="Ultralight-L" transform="matrix(1 0 0 1 490.982 1556)">
   <path class="SFSymbolsPreviewWireframe" d="M25.6028 20.371L111.771 20.371C118.274 20.371 121.374 18.0078 121.374 12.8079C121.374-3.41892 101.06-25.8422 68.6867-25.8422C36.3943-25.8422 16.084-3.41892 16.084 12.8079C16.084 18.0078 19.0946 20.371 25.6028 20.371ZM25.8898 17.7508C20.335 17.7508 18.6637 16.4906 18.6637 12.8888C18.6637-2.54912 37.5009-23.222 68.6867-23.222C99.9575-23.222 118.795-2.54912 118.795 12.8888C118.795 16.4906 117.123 17.7508 111.484 17.7508ZM68.8565-36.0429C82.952-36.0429 93.7189-48.0205 93.7189-63.7514C93.7189-78.5482 82.5185-90.8255 68.8565-90.8255C55.1856-90.8255 44.0791-78.4768 44.0791-63.7604C44.0791-48.025 54.8414-36.0429 68.8565-36.0429ZM68.8565-38.6676C56.2562-38.6676 46.6588-49.4892 46.6588-63.7604C46.6588-77.0126 56.5244-88.2053 68.8565-88.2053C81.0992-88.2053 91.1391-77.0885 91.1391-63.7514C91.1391-49.4802 81.4479-38.6676 68.8565-38.6676Z"/>
  </g>
  <g id="Black-M" transform="matrix(1 0 0 1 2876.8 1126)">
   <path class="SFSymbolsPreviewWireframe" d="M27.2034 12.07L86.0021 12.07C95.7683 12.07 100.744 8.48469 100.744 1.10049C100.744-14.8186 81.5169-30.2096 56.6027-30.2096C31.6937-30.2096 12.4609-14.8186 12.4609 1.10049C12.4609 8.48469 17.4426 12.07 27.2034 12.07ZM28.8402-1.22175C28.2275-1.22175 28.086-1.63365 28.086-2.02446C28.086-7.06725 38.7811-16.9178 56.6027-16.9178C74.4241-16.9178 85.1192-7.06725 85.1192-2.02446C85.1192-1.63365 84.9777-1.22175 84.3653-1.22175ZM56.6022-34.2765C69.2379-34.2765 79.1862-45.0397 79.1862-58.6031C79.1862-71.7128 69.0219-82.5916 56.6022-82.5916C44.1934-82.5916 34.0178-71.6966 34.0178-58.5921C34.0178-45.0342 43.9717-34.2765 56.6022-34.2765ZM56.6022-47.5628C51.553-47.5628 47.359-51.7559 47.359-58.6492C47.359-64.975 51.707-69.2998 56.6022-69.2998C61.5602-69.2998 65.845-64.9857 65.845-58.6031C65.845-51.7669 61.7193-47.5628 56.6022-47.5628Z"/>
  </g>
  <g id="Heavy-M" transform="matrix(1 0 0 1 2580.44 1126)">
   <path class="SFSymbolsPreviewWireframe" d="M26.5465 11.5686L85.9461 11.5686C95.3266 11.5686 100.034 8.25396 100.034 1.34884C100.034-13.8324 81.5387-29.9647 56.2463-29.9647C30.9726-29.9647 12.4609-13.8324 12.4609 1.34884C12.4609 8.25396 17.1824 11.5686 26.5465 11.5686ZM27.2499-0.329781C26.4831-0.329781 26.2519-0.718467 26.2519-1.25847C26.2519-7.00832 37.3457-18.0663 56.2463-18.0663C75.1492-18.0663 86.243-7.00832 86.243-1.25847C86.243-0.718467 86.0118-0.329781 85.2427-0.329781ZM56.2508-34.5067C68.6512-34.5067 78.4811-45.1675 78.4811-58.4974C78.4811-71.4533 68.4982-82.0876 56.2508-82.0876C44.0363-82.0876 34.0229-71.4018 34.0229-58.4646C34.0229-45.1511 43.8692-34.5067 56.2508-34.5067ZM56.2508-46.3887C50.7152-46.3887 46.069-51.2059 46.069-58.5082C46.069-65.347 50.8036-70.1892 56.2508-70.1892C61.7558-70.1892 66.435-65.3821 66.435-58.4974C66.435-51.2387 61.8629-46.3887 56.2508-46.3887Z"/>
  </g>
  <g id="Bold-M" transform="matrix(1 0 0 1 2284.13 1126)">
   <path class="SFSymbolsPreviewWireframe" d="M25.8117 11.0077L85.8835 11.0077C94.8325 11.0077 99.2394 7.99585 99.2394 1.62666C99.2394-12.7292 81.563-29.6907 55.8476-29.6907C30.1659-29.6907 12.4609-12.7292 12.4609 1.62666C12.4609 7.99585 16.8913 11.0077 25.8117 11.0077ZM25.4709 0.66801C24.5317 0.66801 24.2002 0.305295 24.2002-0.401603C24.2002-6.94239 35.74-19.351 55.8476-19.351C75.9603-19.351 87.5001-6.94239 87.5001-0.401603C87.5001 0.305295 87.1686 0.66801 86.2243 0.66801ZM55.8578-34.7643C67.9949-34.7643 77.6922-45.3104 77.6922-58.3791C77.6922-71.1629 67.9123-81.5239 55.8578-81.5239C43.8606-81.5239 34.0286-71.0719 34.0286-58.3219C34.0286-45.2818 43.7545-34.7643 55.8578-34.7643ZM55.8578-45.0754C49.7779-45.0754 44.626-50.5907 44.626-58.3504C44.626-65.7631 49.7931-71.1842 55.8578-71.1842C61.9746-71.1842 67.0949-65.8255 67.0949-58.3791C67.0949-50.6479 62.0236-45.0754 55.8578-45.0754Z"/>
  </g>
  <g id="Semibold-M" transform="matrix(1 0 0 1 1987.69 1126)">
   <path class="SFSymbolsPreviewWireframe" d="M25.3051 10.6211L85.8403 10.6211C94.4919 10.6211 98.6916 7.81792 98.6916 1.81818C98.6916-11.9686 81.5798-29.5019 55.5727-29.5019C29.6098-29.5019 12.4609-11.9686 12.4609 1.81818C12.4609 7.81792 16.6906 10.6211 25.3051 10.6211ZM24.2445 1.35588C23.1865 1.35588 22.7858 1.01107 22.7858 0.189117C22.7858-6.89693 34.6331-20.2367 55.5727-20.2367C76.5195-20.2367 88.3668-6.89693 88.3668 0.189117C88.3668 1.01107 87.9661 1.35588 86.901 1.35588ZM55.5869-34.9418C67.5425-34.9418 77.1484-45.409 77.1484-58.2976C77.1484-70.9628 67.5084-81.1352 55.5869-81.1352C43.7395-81.1352 34.0326-70.8445 34.0326-58.2235C34.0326-45.3719 43.6755-34.9418 55.5869-34.9418ZM55.5869-44.17C49.1318-44.17 43.6311-50.1665 43.6311-58.2416C43.6311-66.0499 49.0964-71.8701 55.5869-71.8701C62.1255-71.8701 67.5498-66.1311 67.5498-58.2976C67.5498-50.2406 62.1343-44.17 55.5869-44.17Z"/>
  </g>
  <g id="Medium-M" transform="matrix(1 0 0 1 1691.19 1126)">
   <path class="SFSymbolsPreviewWireframe" d="M24.921 10.3279L85.8076 10.3279C94.2336 10.3279 98.2762 7.683 98.2762 1.9634C98.2762-11.3919 81.5925-29.3587 55.3643-29.3587C29.1881-29.3587 12.4609-11.3919 12.4609 1.9634C12.4609 7.683 16.5384 10.3279 24.921 10.3279ZM23.3145 1.87745C22.1664 1.87745 21.7133 1.54622 21.7133 0.637025C21.7133-6.86247 33.7937-20.9082 55.3643-20.9082C76.9435-20.9082 89.0239-6.86247 89.0239 0.637025C89.0239 1.54622 88.5708 1.87745 87.414 1.87745ZM55.3815-35.0765C67.1994-35.0765 76.736-45.4837 76.736-58.2358C76.736-70.811 67.2022-80.8406 55.3815-80.8406C43.6477-80.8406 34.0356-70.6721 34.0356-58.1489C34.0356-45.4402 43.6156-35.0765 55.3815-35.0765ZM55.3815-43.4835C48.6418-43.4835 42.8768-49.8449 42.8768-58.1592C42.8768-66.2674 48.5682-72.3901 55.3815-72.3901C62.2399-72.3901 67.8948-66.3629 67.8948-58.2358C67.8948-49.9318 62.2183-43.4835 55.3815-43.4835Z"/>
  </g>
  <g id="Regular-M" transform="matrix(1 0 0 1 1394.75 1126)">
   <path class="SFSymbolsPreviewWireframe" d="M24.42 9.94545L85.7649 9.94545C93.8967 9.94545 97.7345 7.50702 97.7345 2.15282C97.7345-10.6397 81.6091-29.1719 55.0924-29.1719C28.6381-29.1719 12.4609-10.6397 12.4609 2.15282C12.4609 7.50702 16.3399 9.94545 24.42 9.94545ZM22.1016 2.55777C20.8359 2.55777 20.3144 2.24424 20.3144 1.22125C20.3144-6.81752 32.6989-21.7842 55.0924-21.7842C77.4965-21.7842 89.881-6.81752 89.881 1.22125C89.881 2.24424 89.3595 2.55777 88.0833 2.55777ZM55.1135-35.2521C66.752-35.2521 76.1982-45.5811 76.1982-58.1551C76.1982-70.613 66.8027-80.4562 55.1135-80.4562C43.5279-80.4562 34.0395-70.4472 34.0395-58.0516C34.0395-45.5294 43.5374-35.2521 55.1135-35.2521ZM55.1135-42.588C48.0028-42.588 41.8929-49.4254 41.8929-58.0516C41.8929-66.5512 47.8792-73.0685 55.1135-73.0685C62.3891-73.0685 68.3447-66.6652 68.3447-58.1551C68.3447-49.529 62.3278-42.588 55.1135-42.588Z"/>
  </g>
  <g id="Light-M" transform="matrix(1 0 0 1 1098.61 1126)">
   <path class="SFSymbolsPreviewWireframe" d="M22.9998 9.29523L86.0216 9.29523C93.1952 9.29523 96.5881 7.04502 96.5881 2.10149C96.5881-10.6226 80.5825-28.7954 54.5107-28.7954C28.5012-28.7954 12.4609-10.6226 12.4609 2.10149C12.4609 7.04502 15.8608 9.29523 22.9998 9.29523ZM21.4685 3.56731C19.2617 3.56731 18.5006 3.04845 18.5006 1.47792C18.5006-7.77573 31.5696-23.0675 54.5107-23.0675C77.4794-23.0675 90.5483-7.77573 90.5483 1.47792C90.5483 3.04845 89.7873 3.56731 87.5528 3.56731ZM54.566-35.4403C65.982-35.4403 75.086-45.4442 75.086-57.8984C75.086-70.0484 65.9129-79.7889 54.566-79.7889C43.2883-79.7889 34.0737-69.9168 34.0737-57.8292C34.0737-45.4096 43.2123-35.4403 54.566-35.4403ZM54.566-41.1336C46.6339-41.1336 40.1134-48.4501 40.1134-57.8292C40.1134-66.8763 46.613-74.0609 54.566-74.0609C62.526-74.0609 69.0463-66.9732 69.0463-57.8984C69.0463-48.5194 62.5673-41.1336 54.566-41.1336Z"/>
  </g>
  <g id="Thin-M" transform="matrix(1 0 0 1 802.656 1126)">
   <path class="SFSymbolsPreviewWireframe" d="M21.1214 8.43527L86.361 8.43527C92.2673 8.43527 95.0718 6.434 95.0718 2.03359C95.0718-10.6 79.2246-28.2976 53.7412-28.2976C28.3201-28.2976 12.4609-10.6 12.4609 2.03359C12.4609 6.434 15.2272 8.43527 21.1214 8.43527ZM20.6312 4.90252C17.1797 4.90252 16.1018 4.11209 16.1018 1.81738C16.1018-9.04304 30.076-24.7648 53.7412-24.7648C77.4567-24.7648 91.4309-9.04304 91.4309 1.81738C91.4309 4.11209 90.353 4.90252 86.8513 4.90252ZM53.8418-35.6893C64.9636-35.6893 73.615-45.2632 73.615-57.559C73.615-69.3016 64.7362-78.9063 53.8418-78.9063C42.9715-78.9063 34.1189-69.2152 34.1189-57.535C34.1189-45.2512 42.7823-35.6893 53.8418-35.6893ZM53.8418-39.21C44.8235-39.21 37.7598-47.1602 37.7598-57.535C37.7598-67.3062 44.9383-75.3735 53.8418-75.3735C62.707-75.3735 69.9741-67.3806 69.9741-57.559C69.9741-47.1842 62.8842-39.21 53.8418-39.21Z"/>
  </g>
  <g id="Ultralight-M" transform="matrix(1 0 0 1 506.333 1126)">
   <path class="SFSymbolsPreviewWireframe" d="M20.1593 7.9948L86.5349 7.9948C91.7921 7.9948 94.2952 6.12103 94.2952 1.99882C94.2952-10.5884 78.5292-28.0426 53.3471-28.0426C28.2274-28.0426 12.4609-10.5884 12.4609 1.99882C12.4609 6.12103 14.9026 7.9948 20.1593 7.9948ZM20.2023 5.5864C16.1133 5.5864 14.8731 4.65688 14.8731 1.99125C14.8731-9.69216 29.311-25.6342 53.3471-25.6342C77.4451-25.6342 91.883-9.69216 91.883 1.99125C91.883 4.65688 90.6428 5.5864 86.492 5.5864ZM53.4709-35.8168C64.442-35.8168 72.8615-45.1705 72.8615-57.3851C72.8615-68.9191 64.1334-78.4542 53.4709-78.4542C42.8092-78.4542 34.1421-68.8559 34.1421-57.3843C34.1421-45.17 42.5621-35.8168 53.4709-35.8168ZM53.4709-38.2247C43.8962-38.2247 36.5543-46.4995 36.5543-57.3843C36.5543-67.5265 44.0806-76.0458 53.4709-76.0458C62.7998-76.0458 70.4493-67.5892 70.4493-57.3851C70.4493-46.5003 63.0465-38.2247 53.4709-38.2247Z"/>
  </g>
  <g id="Black-S" transform="matrix(1 0 0 1 2888.97 696)">
   <path class="SFSymbolsPreviewWireframe" d="M21.4355 1.95312L67.4316 1.95312C75.1465 1.95312 79.1016-0.927734 79.1016-6.83594C79.1016-19.5312 63.8184-31.3477 44.4336-31.3477C25.0488-31.3477 9.76562-19.5312 9.76562-6.83594C9.76562-0.927734 13.7207 1.95312 21.4355 1.95312ZM23.0469-8.78906C22.5586-8.78906 22.4609-9.13086 22.4609-9.42383C22.4609-13.2324 30.7617-20.6055 44.4336-20.6055C58.1055-20.6055 66.4062-13.2324 66.4062-9.42383C66.4062-9.13086 66.3086-8.78906 65.8203-8.78906ZM44.4336-34.4238C54.3945-34.4238 62.207-42.8711 62.207-53.5645C62.207-63.8672 54.1992-72.4609 44.4336-72.4609C34.668-72.4609 26.6602-63.8672 26.6602-53.5645C26.6602-42.8711 34.4727-34.4238 44.4336-34.4238ZM44.4336-45.166C40.5762-45.166 37.4023-48.291 37.4023-53.6133C37.4023-58.4473 40.7227-61.7188 44.4336-61.7188C48.1934-61.7188 51.4648-58.4473 51.4648-53.5645C51.4648-48.291 48.3398-45.166 44.4336-45.166Z"/>
  </g>
  <g id="Heavy-S" transform="matrix(1 0 0 1 2592.49 696)">
   <path class="SFSymbolsPreviewWireframe" d="M21.0552 1.60739L67.351 1.60739C74.8584 1.60739 78.6406-1.06603 78.6406-6.61697C78.6406-18.69 63.9682-31.1863 44.2031-31.1863C24.4496-31.1863 9.76562-18.69 9.76562-6.61697C9.76562-1.06603 13.5594 1.60739 21.0552 1.60739ZM21.7677-8.15522C21.2679-8.15522 21.1241-8.45092 21.1241-8.80151C21.1241-13.0596 29.6784-21.4237 44.2031-21.4237C58.7278-21.4237 67.2821-13.0596 67.2821-8.80151C67.2821-8.45092 67.1384-8.15522 66.6385-8.15522ZM44.2031-34.5967C53.9912-34.5967 61.7461-42.9979 61.7461-53.5068C61.7461-63.7174 53.865-72.1152 44.2031-72.1152C34.5642-72.1152 26.6602-63.6828 26.6602-53.4838C26.6602-42.9863 34.4266-34.5967 44.2031-34.5967ZM44.2031-44.3478C40.0345-44.3478 36.5265-47.9453 36.5265-53.5211C36.5265-58.7239 40.1119-62.3526 44.2031-62.3526C48.3432-62.3526 51.8797-58.7469 51.8797-53.5068C51.8797-47.9683 48.432-44.3478 44.2031-44.3478Z"/>
  </g>
  <g id="Bold-S" transform="matrix(1 0 0 1 2296.03 696)">
   <path class="SFSymbolsPreviewWireframe" d="M20.6299 1.2207L67.2607 1.2207C74.5361 1.2207 78.125-1.2207 78.125-6.37207C78.125-17.749 64.1357-31.0059 43.9453-31.0059C23.7793-31.0059 9.76562-17.749 9.76562-6.37207C9.76562-1.2207 13.3789 1.2207 20.6299 1.2207ZM20.3369-7.44629C19.8242-7.44629 19.6289-7.69043 19.6289-8.10547C19.6289-12.8662 28.4668-22.3389 43.9453-22.3389C59.4238-22.3389 68.2617-12.8662 68.2617-8.10547C68.2617-7.69043 68.0664-7.44629 67.5537-7.44629ZM43.9453-34.79C53.54-34.79 61.2305-43.1396 61.2305-53.4424C61.2305-63.5498 53.4912-71.7285 43.9453-71.7285C34.4482-71.7285 26.6602-63.4766 26.6602-53.3936C26.6602-43.1152 34.375-34.79 43.9453-34.79ZM43.9453-43.4326C39.4287-43.4326 35.5469-47.5586 35.5469-53.418C35.5469-59.0332 39.4287-63.0615 43.9453-63.0615C48.5107-63.0615 52.3438-59.082 52.3438-53.4424C52.3438-47.6074 48.5352-43.4326 43.9453-43.4326Z"/>
  </g>
  <g id="Semibold-S" transform="matrix(1 0 0 1 1999.5 696)">
   <path class="SFSymbolsPreviewWireframe" d="M20.3366 0.954102L67.1985 0.954102C74.314 0.954102 77.7695-1.32734 77.7695-6.20322C77.7695-17.1003 64.2513-30.8814 43.7676-30.8814C23.3172-30.8814 9.76562-17.1003 9.76562-6.20322C9.76562-1.32734 13.2545 0.954102 20.3366 0.954102ZM19.3505-6.95752C18.8289-6.95752 18.598-7.16611 18.598-7.62559C18.598-12.7329 27.6314-22.9698 43.7676-22.9698C59.9037-22.9698 68.9371-12.7329 68.9371-7.62559C68.9371-7.16611 68.7062-6.95752 68.1847-6.95752ZM43.7676-34.9233C53.229-34.9233 60.875-43.2374 60.875-53.3979C60.875-63.4343 53.2335-71.4619 43.7676-71.4619C34.3683-71.4619 26.6602-63.3344 26.6602-53.3313C26.6602-43.2041 34.3395-34.9233 43.7676-34.9233ZM43.7676-42.8017C39.011-42.8017 34.8715-47.292 34.8715-53.3469C34.8715-59.2465 38.9577-63.5503 43.7676-63.5503C48.6263-63.5503 52.6637-59.3131 52.6637-53.3979C52.6637-47.3586 48.6063-42.8017 43.7676-42.8017Z"/>
  </g>
  <g id="Medium-S" transform="matrix(1 0 0 1 1702.92 696)">
   <path class="SFSymbolsPreviewWireframe" d="M20.1143 0.751953L67.1514 0.751953C74.1455 0.751953 77.5-1.4082 77.5-6.0752C77.5-16.6084 64.3389-30.7871 43.6328-30.7871C22.9668-30.7871 9.76562-16.6084 9.76562-6.0752C9.76562-1.4082 13.1602 0.751953 20.1143 0.751953ZM18.6025-6.58691C18.0742-6.58691 17.8164-6.76855 17.8164-7.26172C17.8164-12.6318 26.998-23.4482 43.6328-23.4482C60.2676-23.4482 69.4492-12.6318 69.4492-7.26172C69.4492-6.76855 69.1914-6.58691 68.6631-6.58691ZM43.6328-35.0244C52.9932-35.0244 60.6055-43.3115 60.6055-53.3643C60.6055-63.3467 53.0381-71.2598 43.6328-71.2598C34.3076-71.2598 26.6602-63.2266 26.6602-53.2842C26.6602-43.2715 34.3125-35.0244 43.6328-35.0244ZM43.6328-42.3232C38.6943-42.3232 34.3594-47.0898 34.3594-53.293C34.3594-59.4082 38.6006-63.9209 43.6328-63.9209C48.7139-63.9209 52.9062-59.4883 52.9062-53.3643C52.9062-47.1699 48.6602-42.3232 43.6328-42.3232Z"/>
  </g>
  <g id="Regular-S" transform="matrix(1 0 0 1 1406.39 696)">
   <path class="SFSymbolsPreviewWireframe" d="M19.8242 0.488281L67.0898 0.488281C73.9258 0.488281 77.1484-1.51367 77.1484-5.9082C77.1484-15.9668 64.4531-30.6641 43.457-30.6641C22.5098-30.6641 9.76562-15.9668 9.76562-5.9082C9.76562-1.51367 13.0371 0.488281 19.8242 0.488281ZM17.627-6.10352C17.0898-6.10352 16.7969-6.25 16.7969-6.78711C16.7969-12.5 26.1719-24.0723 43.457-24.0723C60.7422-24.0723 70.1172-12.5 70.1172-6.78711C70.1172-6.25 69.8242-6.10352 69.2871-6.10352ZM43.457-35.1562C52.6855-35.1562 60.2539-43.4082 60.2539-53.3203C60.2539-63.2324 52.7832-70.9961 43.457-70.9961C34.2285-70.9961 26.6602-63.0859 26.6602-53.2227C26.6602-43.3594 34.2773-35.1562 43.457-35.1562ZM43.457-41.6992C38.2812-41.6992 33.6914-46.8262 33.6914-53.2227C33.6914-59.6191 38.1348-64.4043 43.457-64.4043C48.8281-64.4043 53.2227-59.7168 53.2227-53.3203C53.2227-46.9238 48.7305-41.6992 43.457-41.6992Z"/>
  </g>
  <g id="Light-S" transform="matrix(1 0 0 1 1110.18 696)">
   <path class="SFSymbolsPreviewWireframe" d="M18.5679-0.0869095L67.3169-0.0869095C73.3052-0.0869095 76.1343-1.92236 76.1343-5.95361C76.1343-15.9517 63.5449-30.3311 42.9424-30.3311C22.3887-30.3311 9.76562-15.9517 9.76562-5.95361C9.76562-1.92236 12.6133-0.0869095 18.5679-0.0869095ZM17.0669-5.21046C15.6973-5.21046 15.1924-5.53858 15.1924-6.56006C15.1924-13.3476 25.1729-25.2075 42.9424-25.2075C60.7271-25.2075 70.7075-13.3476 70.7075-6.56006C70.7075-5.53858 70.2026-5.21046 68.8179-5.21046ZM42.9727-35.3228C52.0044-35.3228 59.27-43.2871 59.27-53.0933C59.27-62.7329 51.9961-70.4058 42.9727-70.4058C34.0166-70.4058 26.6904-62.6167 26.6904-53.0259C26.6904-43.2534 33.9897-35.3228 42.9727-35.3228ZM42.9727-40.4126C37.0703-40.4126 32.1172-45.9634 32.1172-53.0259C32.1172-59.9067 37.0147-65.2822 42.9727-65.2822C48.9492-65.2822 53.8433-59.9893 53.8433-53.0933C53.8433-46.0308 48.9424-40.4126 42.9727-40.4126Z"/>
  </g>
  <g id="Thin-S" transform="matrix(1 0 0 1 814.143 696)">
   <path class="SFSymbolsPreviewWireframe" d="M16.9063-0.847646L67.6172-0.847646C72.4844-0.847646 74.793-2.46288 74.793-6.01367C74.793-15.9316 62.3438-29.8906 42.2617-29.8906C22.2285-29.8906 9.76562-15.9316 9.76562-6.01367C9.76562-2.46288 12.0527-0.847646 16.9063-0.847646ZM16.3262-4.02931C13.8555-4.02931 13.0703-4.59767 13.0703-6.25977C13.0703-14.4687 23.8516-26.709 42.2617-26.709C60.707-26.709 71.4883-14.4687 71.4883-6.25977C71.4883-4.59767 70.7031-4.02931 68.1973-4.02931ZM42.332-35.543C51.1035-35.543 57.9688-43.127 57.9688-52.793C57.9688-62.0723 50.9551-69.625 42.332-69.625C33.7363-69.625 26.7305-61.9961 26.7305-52.7656C26.7305-43.1133 33.6094-35.543 42.332-35.543ZM42.332-38.711C35.4688-38.711 30.0352-44.8223 30.0352-52.7656C30.0352-60.2871 35.5332-66.4433 42.332-66.4433C49.1094-66.4433 54.6641-60.3496 54.6641-52.793C54.6641-44.8496 49.2227-38.711 42.332-38.711Z"/>
  </g>
  <g id="Ultralight-S" transform="matrix(1 0 0 1 517.775 696)">
   <path class="SFSymbolsPreviewWireframe" d="M16.0552-1.23729L67.771-1.23729C72.064-1.23729 74.106-2.73974 74.106-6.04443C74.106-15.9214 61.7285-29.665 41.9131-29.665C22.1465-29.665 9.76562-15.9214 9.76562-6.04443C9.76562-2.73974 11.7656-1.23729 16.0552-1.23729ZM15.9468-3.42434C12.9121-3.42434 11.9834-4.11574 11.9834-6.10596C11.9834-15.0429 23.1748-27.478 41.9131-27.478C60.6968-27.478 71.8882-15.0429 71.8882-6.10596C71.8882-4.11574 70.9595-3.42434 67.8794-3.42434ZM42.0039-35.6558C50.6421-35.6558 57.3023-43.0449 57.3023-52.6392C57.3023-61.7339 50.4219-69.2251 42.0039-69.2251C33.5928-69.2251 26.751-61.6782 26.751-52.6323C26.751-43.0415 33.4146-35.6558 42.0039-35.6558ZM42.0039-37.8394C34.6485-37.8394 28.9688-44.2378 28.9688-52.6323C28.9688-60.4819 34.7744-67.0381 42.0039-67.0381C49.1914-67.0381 55.0845-60.5342 55.0845-52.6392C55.0845-44.2447 49.3662-37.8394 42.0039-37.8394Z"/>
  </g>
 </g>
</svg>
