<?xml version="1.0" encoding="UTF-8"?>
<!--Generator: Apple Native CoreSVG 341-->
<!DOCTYPE svg
PUBLIC "-//W3C//DTD SVG 1.1//EN"
       "http://www.w3.org/Graphics/SVG/1.1/DTD/svg11.dtd">
<svg version="1.1" xmlns="http://www.w3.org/2000/svg" xmlns:xlink="http://www.w3.org/1999/xlink" viewBox="0 0 3300 2200">
 <!--glyph: "10041A", point size: 100.0, font version: "20.0d10e1", template writer version: "138.0.0"-->
 <style>.SFSymbolsPreviewWireframe {fill:none;opacity:1.0;stroke:black;stroke-width:0.5}
</style>
 <g id="Notes">
  <rect height="2200" id="artboard" style="fill:white;opacity:1" width="3300" x="0" y="0"/>
  <line style="fill:none;stroke:black;opacity:1;stroke-width:0.5;" x1="263" x2="3036" y1="292" y2="292"/>
  <text style="stroke:none;fill:black;font-family:sans-serif;font-size:13;font-weight:bold;" transform="matrix(1 0 0 1 263 322)">Weight/Scale Variations</text>
  <text style="stroke:none;fill:black;font-family:sans-serif;font-size:13;text-anchor:middle;" transform="matrix(1 0 0 1 559.711 322)">Ultralight</text>
  <text style="stroke:none;fill:black;font-family:sans-serif;font-size:13;text-anchor:middle;" transform="matrix(1 0 0 1 856.422 322)">Thin</text>
  <text style="stroke:none;fill:black;font-family:sans-serif;font-size:13;text-anchor:middle;" transform="matrix(1 0 0 1 1153.13 322)">Light</text>
  <text style="stroke:none;fill:black;font-family:sans-serif;font-size:13;text-anchor:middle;" transform="matrix(1 0 0 1 1449.84 322)">Regular</text>
  <text style="stroke:none;fill:black;font-family:sans-serif;font-size:13;text-anchor:middle;" transform="matrix(1 0 0 1 1746.56 322)">Medium</text>
  <text style="stroke:none;fill:black;font-family:sans-serif;font-size:13;text-anchor:middle;" transform="matrix(1 0 0 1 2043.27 322)">Semibold</text>
  <text style="stroke:none;fill:black;font-family:sans-serif;font-size:13;text-anchor:middle;" transform="matrix(1 0 0 1 2339.98 322)">Bold</text>
  <text style="stroke:none;fill:black;font-family:sans-serif;font-size:13;text-anchor:middle;" transform="matrix(1 0 0 1 2636.69 322)">Heavy</text>
  <text style="stroke:none;fill:black;font-family:sans-serif;font-size:13;text-anchor:middle;" transform="matrix(1 0 0 1 2933.4 322)">Black</text>
  <line style="fill:none;stroke:black;opacity:1;stroke-width:0.5;" x1="263" x2="3036" y1="1903" y2="1903"/>
  <g transform="matrix(0.2 0 0 0.2 263 1933)">
   <path d="m46.2402 4.15039c21.7773 0 39.4531-17.627 39.4531-39.4043s-17.6758-39.4043-39.4531-39.4043c-21.7285 0-39.4043 17.627-39.4043 39.4043s17.6758 39.4043 39.4043 39.4043Zm0-7.42188c-17.6758 0-31.9336-14.3066-31.9336-31.9824s14.2578-31.9824 31.9336-31.9824 31.9824 14.3066 31.9824 31.9824-14.3066 31.9824-31.9824 31.9824Zm-17.9688-31.9824c0 2.14844 1.51367 3.61328 3.75977 3.61328h10.498v10.5957c0 2.19727 1.46484 3.71094 3.61328 3.71094 2.24609 0 3.71094-1.51367 3.71094-3.71094v-10.5957h10.5957c2.19727 0 3.71094-1.46484 3.71094-3.61328 0-2.19727-1.51367-3.71094-3.71094-3.71094h-10.5957v-10.5469c0-2.24609-1.46484-3.75977-3.71094-3.75977-2.14844 0-3.61328 1.51367-3.61328 3.75977v10.5469h-10.498c-2.24609 0-3.75977 1.51367-3.75977 3.71094Z"/>
  </g>
  <g transform="matrix(0.2 0 0 0.2 281.506 1933)">
   <path d="m58.5449 14.5508c27.4902 0 49.8047-22.3145 49.8047-49.8047s-22.3145-49.8047-49.8047-49.8047-49.8047 22.3145-49.8047 49.8047 22.3145 49.8047 49.8047 49.8047Zm0-8.30078c-22.9492 0-41.5039-18.5547-41.5039-41.5039s18.5547-41.5039 41.5039-41.5039 41.5039 18.5547 41.5039 41.5039-18.5547 41.5039-41.5039 41.5039Zm-22.6562-41.5039c0 2.39258 1.66016 4.00391 4.15039 4.00391h14.3555v14.4043c0 2.44141 1.66016 4.15039 4.05273 4.15039 2.44141 0 4.15039-1.66016 4.15039-4.15039v-14.4043h14.4043c2.44141 0 4.15039-1.61133 4.15039-4.00391 0-2.44141-1.70898-4.15039-4.15039-4.15039h-14.4043v-14.3555c0-2.49023-1.70898-4.19922-4.15039-4.19922-2.39258 0-4.05273 1.70898-4.05273 4.19922v14.3555h-14.3555c-2.49023 0-4.15039 1.70898-4.15039 4.15039Z"/>
  </g>
  <g transform="matrix(0.2 0 0 0.2 304.924 1933)">
   <path d="m74.8535 28.3203c35.1074 0 63.623-28.4668 63.623-63.5742s-28.5156-63.623-63.623-63.623-63.5742 28.5156-63.5742 63.623 28.4668 63.5742 63.5742 63.5742Zm0-9.08203c-30.127 0-54.4922-24.3652-54.4922-54.4922s24.3652-54.4922 54.4922-54.4922 54.4922 24.3652 54.4922 54.4922-24.3652 54.4922-54.4922 54.4922Zm-28.8574-54.4922c0 2.58789 1.85547 4.39453 4.58984 4.39453h19.7266v19.7754c0 2.68555 1.85547 4.58984 4.44336 4.58984 2.68555 0 4.54102-1.85547 4.54102-4.58984v-19.7754h19.7754c2.68555 0 4.58984-1.80664 4.58984-4.39453 0-2.73438-1.85547-4.58984-4.58984-4.58984h-19.7754v-19.7266c0-2.73438-1.85547-4.63867-4.54102-4.63867-2.58789 0-4.44336 1.9043-4.44336 4.63867v19.7266h-19.7266c-2.73438 0-4.58984 1.85547-4.58984 4.58984Z"/>
  </g>
  <text style="stroke:none;fill:black;font-family:sans-serif;font-size:13;font-weight:bold;" transform="matrix(1 0 0 1 263 1953)">Design Variations</text>
  <text style="stroke:none;fill:black;font-family:sans-serif;font-size:13;" transform="matrix(1 0 0 1 263 1971)">Symbols are supported in up to nine weights and three scales.</text>
  <text style="stroke:none;fill:black;font-family:sans-serif;font-size:13;" transform="matrix(1 0 0 1 263 1989)">For optimal layout with text and other symbols, vertically align</text>
  <text style="stroke:none;fill:black;font-family:sans-serif;font-size:13;" transform="matrix(1 0 0 1 263 2007)">symbols with the adjacent text.</text>
  <line style="fill:none;stroke:#00AEEF;stroke-width:0.5;opacity:1.0;" x1="776" x2="776" y1="1919" y2="1933"/>
  <g transform="matrix(0.2 0 0 0.2 776 1933)">
   <path d="m16.5527 0.78125c2.58789 0 3.85742-0.976562 4.78516-3.71094l6.29883-17.2363h28.8086l6.29883 17.2363c0.927734 2.73438 2.19727 3.71094 4.73633 3.71094 2.58789 0 4.24805-1.5625 4.24805-4.00391 0-0.830078-0.146484-1.61133-0.537109-2.63672l-22.9004-60.9863c-1.12305-2.97852-3.125-4.49219-6.25-4.49219-3.02734 0-5.07812 1.46484-6.15234 4.44336l-22.9004 61.084c-0.390625 1.02539-0.537109 1.80664-0.537109 2.63672 0 2.44141 1.5625 3.95508 4.10156 3.95508Zm13.4766-28.3691 11.8652-32.8613h0.244141l11.8652 32.8613Z"/>
  </g>
  <line style="fill:none;stroke:#00AEEF;stroke-width:0.5;opacity:1.0;" x1="792.836" x2="792.836" y1="1919" y2="1933"/>
  <text style="stroke:none;fill:black;font-family:sans-serif;font-size:13;font-weight:bold;" transform="matrix(1 0 0 1 776 1953)">Margins</text>
  <text style="stroke:none;fill:black;font-family:sans-serif;font-size:13;" transform="matrix(1 0 0 1 776 1971)">Leading and trailing margins on the left and right side of each symbol</text>
  <text style="stroke:none;fill:black;font-family:sans-serif;font-size:13;" transform="matrix(1 0 0 1 776 1989)">can be adjusted by modifying the x-location of the margin guidelines.</text>
  <text style="stroke:none;fill:black;font-family:sans-serif;font-size:13;" transform="matrix(1 0 0 1 776 2007)">Modifications are automatically applied proportionally to all</text>
  <text style="stroke:none;fill:black;font-family:sans-serif;font-size:13;" transform="matrix(1 0 0 1 776 2025)">scales and weights.</text>
  <g transform="matrix(0.2 0 0 0.2 1289 1933)">
   <path d="m14.209 9.32617 8.49609 8.54492c4.29688 4.3457 9.22852 4.05273 13.8672-1.07422l53.4668-58.9355-4.83398-4.88281-53.0762 58.3984c-1.75781 2.00195-3.41797 2.49023-5.76172 0.146484l-5.85938-5.81055c-2.34375-2.29492-1.80664-4.00391 0.195312-5.81055l57.373-54.0039-4.88281-4.83398-57.959 54.4434c-4.93164 4.58984-5.32227 9.47266-1.02539 13.8184Zm32.0801-90.9668c-2.09961 2.05078-2.24609 4.93164-1.07422 6.88477 1.17188 1.80664 3.4668 2.97852 6.68945 2.14844 7.32422-1.70898 14.9414-2.00195 22.0703 2.68555l-2.92969 7.27539c-1.70898 4.15039-0.830078 7.08008 1.85547 9.81445l11.4746 11.5723c2.44141 2.44141 4.49219 2.53906 7.32422 2.05078l5.32227-0.976562 3.32031 3.36914-0.195312 2.7832c-0.195312 2.49023 0.439453 4.39453 2.88086 6.78711l3.80859 3.71094c2.39258 2.39258 5.46875 2.53906 7.8125 0.195312l14.5508-14.5996c2.34375-2.34375 2.24609-5.32227-0.146484-7.71484l-3.85742-3.80859c-2.39258-2.39258-4.24805-3.17383-6.64062-2.97852l-2.88086 0.244141-3.22266-3.17383 1.2207-5.61523c0.634766-2.83203-0.146484-5.0293-3.07617-7.95898l-10.9863-10.9375c-16.6992-16.6016-38.8672-16.2109-53.3203-1.75781Zm7.4707 1.85547c12.1582-8.88672 28.6133-7.37305 39.7461 3.75977l12.1582 12.0605c1.17188 1.17188 1.36719 2.09961 1.02539 3.80859l-1.61133 7.42188 7.51953 7.42188 4.93164-0.292969c1.26953-0.0488281 1.66016 0.0488281 2.63672 1.02539l2.88086 2.88086-12.207 12.207-2.88086-2.88086c-0.976562-0.976562-1.12305-1.36719-1.07422-2.68555l0.341797-4.88281-7.4707-7.42188-7.61719 1.26953c-1.61133 0.341797-2.34375 0.195312-3.56445-0.976562l-10.0098-10.0098c-1.26953-1.17188-1.41602-2.00195-0.634766-3.85742l4.39453-10.4492c-7.8125-7.27539-17.9688-10.4004-28.125-7.42188-0.78125 0.195312-1.07422-0.439453-0.439453-0.976562Z"/>
  </g>
  <text style="stroke:none;fill:black;font-family:sans-serif;font-size:13;font-weight:bold;" transform="matrix(1 0 0 1 1289 1953)">Exporting</text>
  <text style="stroke:none;fill:black;font-family:sans-serif;font-size:13;" transform="matrix(1 0 0 1 1289 1971)">Symbols should be outlined when exporting to ensure the</text>
  <text style="stroke:none;fill:black;font-family:sans-serif;font-size:13;" transform="matrix(1 0 0 1 1289 1989)">design is preserved when submitting to Xcode.</text>
  <text id="template-version" style="stroke:none;fill:black;font-family:sans-serif;font-size:13;text-anchor:end;" transform="matrix(1 0 0 1 3036 1933)">Template v.6.0</text>
  <text style="stroke:none;fill:black;font-family:sans-serif;font-size:13;text-anchor:end;" transform="matrix(1 0 0 1 3036 1951)">Requires Xcode 16 or greater</text>
  <text id="descriptive-name" style="stroke:none;fill:black;font-family:sans-serif;font-size:13;text-anchor:end;" transform="matrix(1 0 0 1 3036 1969)">Generated from shippingbox</text>
  <text style="stroke:none;fill:black;font-family:sans-serif;font-size:13;text-anchor:end;" transform="matrix(1 0 0 1 3036 1987)">Typeset at 100.0 points</text>
  <text style="stroke:none;fill:black;font-family:sans-serif;font-size:13;" transform="matrix(1 0 0 1 263 726)">Small</text>
  <text style="stroke:none;fill:black;font-family:sans-serif;font-size:13;" transform="matrix(1 0 0 1 263 1156)">Medium</text>
  <text style="stroke:none;fill:black;font-family:sans-serif;font-size:13;" transform="matrix(1 0 0 1 263 1586)">Large</text>
 </g>
 <g id="Guides">
  <g id="H-reference" style="fill:#27AAE1;stroke:none;" transform="matrix(1 0 0 1 339 696)">
   <path d="M0.993654 0L3.63775 0L29.3281-67.1323L30.0303-67.1323L30.0303-70.459L28.1226-70.459ZM11.6885-24.4799L46.9815-24.4799L46.2315-26.7285L12.4385-26.7285ZM55.1196 0L57.7637 0L30.6382-70.459L29.4326-70.459L29.4326-67.1323Z"/>
  </g>
  <line id="Baseline-S" style="fill:none;stroke:#27AAE1;opacity:1;stroke-width:0.5;" x1="263" x2="3036" y1="696" y2="696"/>
  <line id="Capline-S" style="fill:none;stroke:#27AAE1;opacity:1;stroke-width:0.5;" x1="263" x2="3036" y1="625.541" y2="625.541"/>
  <g id="H-reference" style="fill:#27AAE1;stroke:none;" transform="matrix(1 0 0 1 339 1126)">
   <path d="M0.993654 0L3.63775 0L29.3281-67.1323L30.0303-67.1323L30.0303-70.459L28.1226-70.459ZM11.6885-24.4799L46.9815-24.4799L46.2315-26.7285L12.4385-26.7285ZM55.1196 0L57.7637 0L30.6382-70.459L29.4326-70.459L29.4326-67.1323Z"/>
  </g>
  <line id="Baseline-M" style="fill:none;stroke:#27AAE1;opacity:1;stroke-width:0.5;" x1="263" x2="3036" y1="1126" y2="1126"/>
  <line id="Capline-M" style="fill:none;stroke:#27AAE1;opacity:1;stroke-width:0.5;" x1="263" x2="3036" y1="1055.54" y2="1055.54"/>
  <g id="H-reference" style="fill:#27AAE1;stroke:none;" transform="matrix(1 0 0 1 339 1556)">
   <path d="M0.993654 0L3.63775 0L29.3281-67.1323L30.0303-67.1323L30.0303-70.459L28.1226-70.459ZM11.6885-24.4799L46.9815-24.4799L46.2315-26.7285L12.4385-26.7285ZM55.1196 0L57.7637 0L30.6382-70.459L29.4326-70.459L29.4326-67.1323Z"/>
  </g>
  <line id="Baseline-L" style="fill:none;stroke:#27AAE1;opacity:1;stroke-width:0.5;" x1="263" x2="3036" y1="1556" y2="1556"/>
  <line id="Capline-L" style="fill:none;stroke:#27AAE1;opacity:1;stroke-width:0.5;" x1="263" x2="3036" y1="1485.54" y2="1485.54"/>
  <line id="right-margin-Regular-M" style="fill:none;stroke:#00AEEF;stroke-width:0.5;opacity:1.0;" x1="1511.6" x2="1511.6" y1="1030.79" y2="1150.12"/>
  <line id="left-margin-Regular-M" style="fill:none;stroke:#00AEEF;stroke-width:0.5;opacity:1.0;" x1="1388.08" x2="1388.08" y1="1030.79" y2="1150.12"/>
 </g>
 <g id="Symbols">
  <g id="Black-L" transform="matrix(1 0 0 1 2851.23 1556)">
   <path class="SFSymbolsPreviewWireframe" d="M26.0406 6.74318L76.8348 33.7608C80.0721 35.5113 84.2751 35.5125 87.494 33.7608L138.288 6.74318C145.306 3.00984 148.266-1.31115 148.266-9.93535L148.266-64.1725C148.266-71.5345 145.453-76.4258 138.684-80.0256L95.5833-103.139C87.1514-107.689 77.1982-107.689 68.7663-103.139L25.6661-80.0256C18.8755-76.4258 16.084-71.5345 16.084-64.1725L16.084-9.93535C16.084-1.31115 19.0425 3.00984 26.0406 6.74318ZM36.798-7.6765C34.0252-9.22692 32.9621-10.9226 32.9621-13.703L32.9621-53.9381L73.3234-32.2297L73.3234 12.3037ZM127.552-7.6765L91.025 12.3037L91.025-32.2297L131.387-53.9381L131.387-13.703C131.387-10.9226 130.304-9.22692 127.552-7.6765ZM82.1638-47.6624L42.6763-68.8986L53.7251-74.9056L93.3718-53.7434ZM111.428-63.3604L71.9899-84.599L76.5107-87.0641C80.2364-89.0632 84.0548-89.1425 87.8181-87.0641L121.672-68.8986Z"/>
  </g>
  <g id="Heavy-L" transform="matrix(1 0 0 1 2555.14 1556)">
   <path class="SFSymbolsPreviewWireframe" d="M25.7001 6.11204L76.258 33.3866C79.5575 35.1895 83.5283 35.1951 86.8089 33.3866L137.367 6.11204C144.058 2.50945 147.013-1.5562 147.013-10.1839L147.013-63.5355C147.013-70.6005 144.304-75.2502 137.953-78.6849L94.3443-102.405C86.1868-106.855 76.9104-106.855 68.7528-102.405L25.1441-78.6849C18.7629-75.2502 16.084-70.6005 16.084-63.5355L16.084-10.1839C16.084-1.5562 19.0335 2.50945 25.7001 6.11204ZM35.1875-6.71201C32.1919-8.3992 31.104-10.1743 31.104-13.1383L31.104-55.2602L73.683-32.0056L73.683 14.5344ZM127.91-6.71201L89.4085 14.5344L89.4085-32.0056L131.993-55.2602L131.993-13.1383C131.993-10.1743 130.875-8.3992 127.91-6.71201ZM81.5307-45.7362L39.6914-68.5298L52.9193-75.8494L94.8847-53.0791ZM110.924-61.6961L69.0608-84.5009L75.6149-88.131C79.5592-90.2904 83.4933-90.3653 87.4521-88.131L123.4-68.5298Z"/>
  </g>
  <g id="Bold-L" transform="matrix(1 0 0 1 2259.21 1556)">
   <path class="SFSymbolsPreviewWireframe" d="M25.1881 5.22401L75.5807 32.7914C78.9123 34.626 82.5913 34.6392 85.9114 32.7914L136.304 5.22401C142.566 1.80516 145.446-1.94542 145.446-10.3869L145.446-63.0049C145.446-69.5745 142.89-73.8574 137.136-77.0326L92.6585-101.565C84.9658-105.811 76.5643-105.811 68.8715-101.565L24.3943-77.0326C18.6022-73.8574 16.084-69.5745 16.084-63.0049L16.084-10.3869C16.084-1.94542 18.9512 1.80516 25.1881 5.22401ZM33.145-5.55815C29.8654-7.4144 28.7766-9.2595 28.7766-12.4316L28.7766-56.964L74.1362-31.878L74.1362 17.2036ZM128.385-5.55815L87.3807 17.2036L87.3807-31.878L132.753-56.964L132.753-12.4316C132.753-9.2595 131.627-7.4144 128.385-5.55815ZM80.7394-43.4584L35.9134-68.1359L51.9056-77.0844L96.8341-52.3761ZM110.339-59.7113L65.4041-84.4153L74.6797-89.5868C78.7589-91.864 82.742-91.9312 86.8124-89.5868L125.603-68.1359Z"/>
  </g>
  <g id="Semibold-L" transform="matrix(1 0 0 1 1963.04 1556)">
   <path class="SFSymbolsPreviewWireframe" d="M24.8351 4.6118L75.1137 32.381C78.4675 34.2375 81.9453 34.256 85.2927 32.381L135.571 4.6118C141.537 1.31962 144.366-2.21374 144.366-10.5269L144.366-62.6392C144.366-68.8672 141.915-72.8972 136.572-75.8935L91.4964-100.986C84.1241-105.091 76.3257-105.091 68.9534-100.986L23.8774-75.8935C18.4915-72.8972 16.084-68.8672 16.084-62.6392L16.084-10.5269C16.084-2.21374 18.8945 1.31962 24.8351 4.6118ZM31.737-4.76268C28.2616-6.73548 27.1721-8.62887 27.1721-11.9444L27.1721-58.1386L74.4485-31.79L74.4485 19.0438ZM128.713-4.76268L85.9828 19.0438L85.9828-31.79L133.278-58.1386L133.278-11.9444C133.278-8.62887 132.145-6.73548 128.713-4.76268ZM80.194-41.8881L33.3089-67.8644L51.2066-77.9359L98.178-51.8915ZM109.935-58.343L62.8832-84.3562L74.035-90.5904C78.2072-92.9488 82.224-93.0107 86.3714-90.5904L127.122-67.8644Z"/>
  </g>
  <g id="Medium-L" transform="matrix(1 0 0 1 1666.74 1556)">
   <path class="SFSymbolsPreviewWireframe" d="M24.5675 4.1476L74.7596 32.0698C78.1303 33.943 81.4554 33.9654 84.8236 32.0698L135.016 4.1476C140.757 0.951464 143.547-2.4172 143.547-10.633L143.547-62.3618C143.547-68.3308 141.176-72.1692 136.145-75.0298L90.6152-100.548C83.4859-104.544 76.1447-104.544 69.0155-100.548L23.4854-75.0298C18.4075-72.1692 16.084-68.3308 16.084-62.3618L16.084-10.633C16.084-2.4172 18.8514 0.951464 24.5675 4.1476ZM30.6693-4.15953C27.0454-6.2207 25.9555-8.15069 25.9555-11.575L25.9555-59.0292L74.6854-31.7233L74.6854 20.439ZM128.961-4.15953L84.9228 20.439L84.9228-31.7233L133.675-59.0292L133.675-11.575C133.675-8.15069 132.538-6.2207 128.961-4.15953ZM79.7804-40.6974L31.3341-67.6585L50.6767-78.5815L99.197-51.5241ZM109.629-57.3054L60.9718-84.3115L73.5461-91.3513C77.7888-93.7713 81.8313-93.8293 86.0371-91.3513L128.274-67.6585Z"/>
  </g>
  <g id="Regular-L" transform="matrix(1 0 0 1 1370.56 1556)">
   <path class="SFSymbolsPreviewWireframe" d="M24.2184 3.54212L74.2978 31.664C77.6904 33.5588 80.8165 33.5864 84.2116 31.664L134.291 3.54212C139.739 0.471262 142.478-2.68257 142.478-10.7714L142.478-62.0001C142.478-67.6313 140.212-71.2196 135.588-73.9032L89.4658-99.975C82.6534-103.832 75.9088-103.832 69.0964-99.975L22.9742-73.9032C18.2979-71.2196 16.084-67.6313 16.084-62.0001L16.084-10.7714C16.084-2.68257 18.7953 0.471262 24.2184 3.54212ZM29.2768-3.37281C25.4592-5.54924 24.3686-7.52698 24.3686-11.0931L24.3686-60.1909L74.9943-31.6363L74.9943 22.259ZM129.285-3.37281L83.5402 22.259L83.5402-31.6363L134.194-60.1909L134.194-11.0931C134.194-7.52698 133.05-5.54924 129.285-3.37281ZM79.2409-39.1444L28.7582-67.39L49.9855-79.4236L100.526-51.0448ZM109.23-55.9521L58.4786-84.2531L72.9085-92.3439C77.2431-94.8442 81.3191-94.897 85.6009-92.3439L129.776-67.39Z"/>
  </g>
  <g id="Light-L" transform="matrix(1 0 0 1 1074.44 1556)">
   <path class="SFSymbolsPreviewWireframe" d="M23.2832 2.24433L74.0688 30.4044C77.1941 32.1083 80.0913 32.155 83.2764 30.4044L134.062 2.24433C139.052-0.559343 141.295-3.50324 141.295-10.2371L141.295-63.2979C141.295-67.7649 139.295-70.6661 135.588-72.8154L87.3282-99.8414C81.6419-103.031 75.737-103.031 70.0507-99.8414L21.7909-72.8154C18.0498-70.6661 16.084-67.7649 16.084-63.2979L16.084-10.2371C16.084-3.50324 18.28-0.559343 23.2832 2.24433ZM27.5591-2.83842C23.4934-5.12937 22.5937-6.97351 22.5937-10.5587L22.5937-61.794L75.3569-32.5142L75.3569 23.4995ZM129.82-2.83842L81.9752 23.4995L81.9752-32.5142L134.785-61.794L134.785-10.5587C134.785-6.97351 133.852-5.12937 129.82-2.83842ZM78.6492-38.2664L25.6282-67.5236L49.1839-80.7023L102.358-51.331ZM109.078-55.0742L55.7685-84.4249L73.3856-94.2143C76.9378-96.2756 80.4411-96.3093 83.9596-94.2143L131.704-67.5236Z"/>
  </g>
  <g id="Thin-L" transform="matrix(1 0 0 1 778.515 1556)">
   <path class="SFSymbolsPreviewWireframe" d="M22.0463 0.527882L73.7659 28.7384C76.5378 30.1899 79.1321 30.2619 82.0396 28.7384L133.759 0.527882C138.143-1.9224 139.73-4.58864 139.73-9.53028L139.73-65.0144C139.73-67.9416 138.084-69.9341 135.588-71.3766L84.5011-99.6647C80.3041-101.97 75.5098-101.97 71.3128-99.6647L20.2259-71.3766C17.7216-69.9341 16.084-67.9416 16.084-65.0144L16.084-9.53028C16.084-4.58864 17.5985-1.9224 22.0463 0.527882ZM25.2873-2.13165C20.8935-4.57405 20.2462-6.2415 20.2462-9.85196L20.2462-63.9143L75.8365-33.6753L75.8365 25.1402ZM130.527-2.13165L79.9054 25.1402L79.9054-33.6753L135.568-63.9143L135.568-9.85196C135.568-6.2415 134.912-4.57405 130.527-2.13165ZM77.8667-37.1053L21.4885-67.7003L48.1238-82.3935L104.781-51.7097ZM108.876-53.9131L52.1842-84.652L74.0167-96.688C76.5339-98.1687 79.28-98.1772 81.7888-96.688L134.253-67.7003Z"/>
  </g>
  <g id="Ultralight-L" transform="matrix(1 0 0 1 482.205 1556)">
   <path class="SFSymbolsPreviewWireframe" d="M21.4128-0.351272L73.6107 27.8851C76.2017 29.2073 78.6408 29.2922 81.4061 27.8851L133.604-0.351272C137.678-2.62055 138.928-5.14457 138.928-9.16828L138.928-65.8935C138.928-68.0321 137.463-69.5591 135.588-70.6397L83.0531-99.5742C79.6189-101.427 75.3935-101.427 71.9592-99.5742L19.4243-70.6397C17.5536-69.5591 16.084-68.0321 16.084-65.8935L16.084-9.16828C16.084-5.14457 17.2494-2.62055 21.4128-0.351272ZM24.1237-1.76964C19.5618-4.28962 19.0438-5.86657 19.0438-9.48995L19.0438-65.0004L76.0822-34.2701L76.0822 25.9806ZM130.889-1.76964L78.8452 25.9806L78.8452-34.2701L135.969-65.0004L135.969-9.48995C135.969-5.86657 135.455-4.28962 130.889-1.76964ZM77.466-36.5106L19.3682-67.7908L47.5807-83.2597L106.023-51.9036ZM108.772-53.3184L50.3483-84.7684L74.3399-97.955C76.327-99.1384 78.6853-99.1339 80.6769-97.955L135.559-67.7908Z"/>
  </g>
  <g id="Black-M" transform="matrix(1 0 0 1 2869.28 1126)">
   <path class="SFSymbolsPreviewWireframe" d="M20.3406-2.34491L59.9918 18.3711C62.4102 19.6565 65.835 19.6562 68.2473 18.3711L107.899-2.34491C113.554-5.31346 115.784-8.85212 115.784-15.3471L115.784-58.3761C115.784-64.1773 113.552-68.0814 108.072-70.9397L74.8276-88.4544C68.2118-91.9742 60.0328-91.9742 53.417-88.4544L20.1728-70.9397C14.6868-68.0814 12.4609-64.1773 12.4609-58.3761L12.4609-15.3471C12.4609-8.85212 14.6909-5.31346 20.3406-2.34491ZM29.6603-14.6395C27.67-15.7387 26.8935-16.9661 26.8935-18.965L26.8935-48.8048L56.5468-33.217L56.5468-0.152481ZM98.5843-14.6395L71.6981-0.152481L71.6981-33.217L101.351-48.8048L101.351-18.965C101.351-16.9661 100.569-15.7387 98.5843-14.6395ZM64.1197-46.3982L35.2044-61.6494L42.207-65.3304L71.287-50.1827ZM86.7402-58.3351L57.9237-73.5857L60.1106-74.7244C62.7031-76.076 65.4844-76.1386 68.1286-74.7244L93.0406-61.6494Z"/>
  </g>
  <g id="Heavy-M" transform="matrix(1 0 0 1 2573.12 1126)">
   <path class="SFSymbolsPreviewWireframe" d="M20.0941-2.84217L59.4491 18.1215C61.953 19.4757 65.1719 19.4779 67.6639 18.1215L107.019-2.84217C112.397-5.70755 114.668-9.01596 114.668-15.6393L114.668-57.6337C114.668-63.2519 112.513-66.9832 107.358-69.7295L73.8136-87.7493C67.3621-91.2335 59.7673-91.2335 53.3158-87.7493L19.7718-69.7295C14.5996-66.9832 12.4609-63.2519 12.4609-57.6337L12.4609-15.6393C12.4609-9.01596 14.7297-5.70755 20.0941-2.84217ZM28.2444-13.746C26.0592-14.9683 25.2409-16.2856 25.2409-18.4622L25.2409-49.9494L56.8649-32.9169L56.8649 1.91365ZM98.885-13.746L70.2622 1.91365L70.2622-32.9169L101.889-49.9494L101.889-18.4622C101.889-16.2856 101.054-14.9683 98.885-13.746ZM63.5554-44.5963L32.5752-61.2765L41.4933-66.135L72.597-49.5069ZM86.2616-56.7891L55.3104-73.474L59.1908-75.5949C62.0693-77.1436 65.0165-77.2037 67.9222-75.5949L94.5519-61.2765Z"/>
  </g>
  <g id="Bold-M" transform="matrix(1 0 0 1 2277.04 1126)">
   <path class="SFSymbolsPreviewWireframe" d="M19.8183-3.39843L58.842 17.8423C61.4415 19.2734 64.4301 19.2785 67.0113 17.8423L106.035-3.39843C111.104-6.14839 113.421-9.19924 113.421-15.9662L113.421-56.8032C113.421-62.2168 111.351-65.7547 106.559-68.3757L72.6793-86.9605C66.4117-90.4049 59.4702-90.4049 53.2026-86.9605L19.3231-68.3757C14.5021-65.7547 12.4609-62.2168 12.4609-56.8032L12.4609-15.9662C12.4609-9.19924 14.773-6.14839 19.8183-3.39843ZM26.6605-12.7464C24.2573-14.1065 23.3922-15.5244 23.3922-17.8998L23.3922-51.2297L57.2207-32.5812L57.2207 4.22492ZM99.2213-12.7464L68.656 4.22492L68.656-32.5812L102.49-51.2297L102.49-17.8998C102.49-15.5244 101.596-14.1065 99.2213-12.7464ZM62.924-42.5805L29.6341-60.8594L40.6948-67.0351L74.0624-48.7509ZM85.7262-55.0598L52.387-73.349L58.162-76.5685C61.3603-78.3379 64.493-78.3951 67.6913-76.5685L96.2427-60.8594Z"/>
  </g>
  <g id="Semibold-M" transform="matrix(1 0 0 1 1980.76 1126)">
   <path class="SFSymbolsPreviewWireframe" d="M19.6281-3.78191L58.4234 17.6498C61.0889 19.1339 63.9187 19.141 66.5613 17.6498L105.357-3.78191C110.212-6.45231 112.561-9.3256 112.561-16.1916L112.561-56.2306C112.561-61.5032 110.55-64.9077 106.008-67.4423L71.8973-86.4168C65.7564-89.8337 59.2654-89.8337 53.1245-86.4168L19.0138-67.4423C14.4349-64.9077 12.4609-61.5032 12.4609-56.2306L12.4609-16.1916C12.4609-9.3256 14.8029-6.45231 19.6281-3.78191ZM25.5686-12.0573C23.015-13.5123 22.1177-14.9996 22.1177-17.512L22.1177-52.1123L57.466-32.3498L57.466 5.81829ZM99.4532-12.0573L67.5487 5.81829L67.5487-32.3498L102.904-52.1123L102.904-17.512C102.904-14.9996 101.97-13.5123 99.4532-12.0573ZM62.4888-41.1909L27.6065-60.5719L40.1444-67.6556L75.0726-48.2297ZM85.3572-53.8676L50.3716-73.2628L57.4527-77.2398C60.8715-79.1612 64.1321-79.2164 67.5321-77.2398L97.4082-60.5719Z"/>
  </g>
  <g id="Medium-M" transform="matrix(1 0 0 1 1684.37 1126)">
   <path class="SFSymbolsPreviewWireframe" d="M19.4839-4.07268L58.1061 17.5039C60.8215 19.0281 63.531 19.0367 66.2202 17.5039L104.842-4.07268C109.535-6.68275 111.909-9.42141 111.909-16.3624L111.909-55.7965C111.909-60.9621 109.942-64.2655 105.59-66.7346L71.3044-86.0045C65.2596-89.4006 59.1101-89.4006 53.0653-86.0045L18.7793-66.7346C14.384-64.2655 12.4609-60.9621 12.4609-55.7965L12.4609-16.3624C12.4609-9.42141 14.8256-6.68275 19.4839-4.07268ZM24.7407-11.5348C22.0731-13.0618 21.1513-14.6016 21.1513-17.218L21.1513-52.7816L57.652-32.1743L57.652 7.02646ZM99.629-11.5348L66.7091 7.02646L66.7091-32.1743L103.218-52.7816L103.218-17.218C103.218-14.6016 102.253-13.0618 99.629-11.5348ZM62.1588-40.1372L26.0691-60.3539L39.727-68.1261L75.8386-47.8346ZM85.0773-52.9636L48.8434-73.1975L56.9149-77.7487C60.5009-79.7855 63.8585-79.8392 67.4114-77.7487L98.292-60.3539Z"/>
  </g>
  <g id="Regular-M" transform="matrix(1 0 0 1 1388.08 1126)">
   <path class="SFSymbolsPreviewWireframe" d="M19.2959-4.45194L57.6921 17.3135C60.4727 18.8902 63.0252 18.9008 65.7752 17.3135L104.171-4.45194C108.653-6.98333 111.058-9.54637 111.058-16.5853L111.058-55.2303C111.058-60.2564 109.15-63.4279 105.046-65.8116L70.531-85.4667C64.6115-88.8357 58.9076-88.8357 52.9881-85.4667L18.4734-65.8116C14.3175-63.4279 12.4609-60.2564 12.4609-55.2303L12.4609-16.5853C12.4609-9.54637 14.8552-6.98333 19.2959-4.45194ZM23.6608-10.8533C20.8445-12.4742 19.8908-14.0826 19.8908-16.8346L19.8908-53.6545L57.8946-31.9454L57.8946 8.60232ZM99.8583-10.8533L65.6139 8.60232L65.6139-31.9454L103.628-53.6545L103.628-16.8346C103.628-14.0826 102.623-12.4742 99.8583-10.8533ZM61.7284-38.7628L24.0638-60.0695L39.1826-68.7398L76.8377-47.3191ZM84.7123-51.7845L46.8502-73.1122L56.2134-78.4126C60.0175-80.5998 63.5016-80.6516 67.2539-78.4126L99.4448-60.0695Z"/>
  </g>
  <g id="Light-M" transform="matrix(1 0 0 1 1091.9 1126)">
   <path class="SFSymbolsPreviewWireframe" d="M18.4575-5.61549L57.4868 16.1842C60.0279 17.5898 62.375 17.6174 64.9368 16.1842L103.966-5.61549C108.037-7.90732 109.997-10.2821 109.997-16.1062L109.997-56.3938C109.997-60.3762 108.328-62.9317 105.046-64.8363L68.6146-85.3469C63.7046-88.117 58.7536-88.117 53.8436-85.3469L17.4125-64.8363C14.0951-62.9317 12.4609-60.3762 12.4609-56.3938L12.4609-16.1062C12.4609-10.2821 14.3932-7.90732 18.4575-5.61549ZM22.1208-10.3742C19.0821-12.0978 18.2995-13.5864 18.2995-16.3554L18.2995-55.0919L58.2197-32.7325L58.2197 9.71453ZM100.337-10.3742L64.2108 9.71453L64.2108-32.7325L104.159-55.0919L104.159-16.3554C104.159-13.5864 103.341-12.0978 100.337-10.3742ZM61.1979-37.9757L21.2576-60.1892L38.464-69.8863L78.4804-47.5758ZM84.5754-50.9974L44.4204-73.2662L56.6412-80.0895C59.7437-81.8831 62.7145-81.9178 65.7824-80.0895L101.173-60.1892Z"/>
  </g>
  <g id="Thin-M" transform="matrix(1 0 0 1 795.895 1126)">
   <path class="SFSymbolsPreviewWireframe" d="M17.3486-7.15437L57.2152 14.6906C59.4395 15.8699 61.5151 15.9201 63.8279 14.6906L103.695-7.15437C107.223-9.12937 108.594-11.2553 108.594-15.4726L108.594-57.9327C108.594-60.5346 107.242-62.2754 105.046-63.5463L66.0799-85.1885C62.5052-87.1665 58.5499-87.1665 54.9752-85.1885L16.0094-63.5463C13.8009-62.2754 12.4609-60.5346 12.4609-57.9327L12.4609-15.4726C12.4609-11.2553 13.7821-9.12937 17.3486-7.15437ZM20.084-9.74054C16.7511-11.5999 16.1949-12.9301 16.1949-15.7218L16.1949-56.9928L58.6497-33.7735L58.6497 11.1855ZM100.971-9.74054L62.3551 11.1855L62.3551-33.7735L104.86-56.9928L104.86-15.7218C104.86-12.9301 104.292-11.5999 100.971-9.74054ZM60.4964-36.9347L17.5462-60.3477L37.5135-71.4025L80.6529-47.9152ZM84.3943-49.9564L41.2069-73.4699L57.2069-82.3073C59.3816-83.5804 61.6735-83.5925 63.8362-82.3073L103.459-60.3477Z"/>
  </g>
  <g id="Ultralight-M" transform="matrix(1 0 0 1 499.543 1126)">
   <path class="SFSymbolsPreviewWireframe" d="M16.7806-7.94257L57.0761 13.9255C59.1381 14.9889 61.0746 15.0508 63.2599 13.9255L103.555-7.94257C106.805-9.7553 107.876-11.7537 107.876-15.148L107.876-58.7209C107.876-60.6157 106.686-61.9393 105.046-62.8856L64.7817-85.1073C61.8909-86.6797 58.4456-86.6797 55.5547-85.1073L15.2907-62.8856C13.6502-61.9393 12.4609-60.6157 12.4609-58.7209L12.4609-15.148C12.4609-11.7537 13.4692-9.7553 16.7806-7.94257ZM19.0408-9.41598C15.5572-11.3449 15.1169-12.5939 15.1169-15.3972L15.1169-57.9665L58.8699-34.3067L58.8699 11.939ZM101.296-9.41598L61.4046 11.939L61.4046-34.3067L105.22-57.9665L105.22-15.3972C105.22-12.5939 104.779-11.3449 101.296-9.41598ZM60.1371-36.4015L15.6452-60.4288L37.0267-72.1791L81.7657-48.0891ZM84.3016-49.4232L39.5609-73.5742L57.4967-83.4432C59.1962-84.4498 61.1403-84.4502 62.8393-83.4432L104.629-60.4288Z"/>
  </g>
  <g id="Black-S" transform="matrix(1 0 0 1 2883.01 696)">
   <path class="SFSymbolsPreviewWireframe" d="M15.9668-9.375L47.168 6.78711C49.0234 7.76367 51.7578 7.76367 53.6133 6.78711L84.8145-9.375C89.3066-11.7188 91.0156-14.5508 91.0156-19.5312L91.0156-53.6621C91.0156-58.2031 89.2578-61.2793 84.9121-63.5254L58.8379-77.1484C53.6621-79.8828 47.1191-79.8828 41.9434-77.1484L15.8691-63.5254C11.5234-61.2793 9.76562-58.2031 9.76562-53.6621L9.76562-19.5312C9.76562-14.5508 11.4746-11.7188 15.9668-9.375ZM23.584-19.3359C22.0703-20.166 21.4844-21.0938 21.4844-22.6074L21.4844-45.6055L44.2383-33.7891L44.2383-8.30078ZM77.1973-19.3359L56.543-8.30078L56.543-33.7891L79.2969-45.6055L79.2969-22.6074C79.2969-21.0938 78.7109-20.166 77.1973-19.3359ZM50.3906-44.4824L28.2227-56.0547L33.252-58.6426L55.5664-47.168ZM68.1152-53.7598L46.0449-65.332L47.4121-66.0156C49.3164-66.9922 51.416-67.041 53.3691-66.0156L72.5586-56.0547Z"/>
  </g>
  <g id="Heavy-S" transform="matrix(1 0 0 1 2586.71 696)">
   <path class="SFSymbolsPreviewWireframe" d="M15.8631-9.65159L46.73 6.71796C48.6892 7.7752 51.2738 7.7752 53.2214 6.71796L84.0884-9.65159C88.3962-11.9377 90.1974-14.5969 90.1974-19.8424L90.1974-52.8784C90.1974-57.3964 88.4741-60.4034 84.3013-62.615L58.2156-76.5607C53.0513-79.3412 46.9117-79.3412 41.7474-76.5607L15.6617-62.615C11.4773-60.4034 9.76562-57.3964 9.76562-52.8784L9.76562-19.8424C9.76562-14.5969 11.5668-11.9377 15.8631-9.65159ZM22.5698-18.6329C20.9179-19.5552 20.2743-20.5751 20.2743-22.2386L20.2743-46.4007L44.4688-33.4318L44.4688-6.67583ZM77.3932-18.6329L55.4942-6.67583L55.4942-33.4318L79.6887-46.4007L79.6887-22.2386C79.6887-20.5751 79.0336-19.5552 77.3932-18.6329ZM49.9757-43.0419L26.3326-55.7205L32.7334-59.1842L56.4768-46.5572ZM67.7234-52.5382L44.1203-65.2168L46.5708-66.5458C48.8093-67.7413 51.1164-67.7901 53.3807-66.5458L73.6304-55.7205Z"/>
  </g>
  <g id="Bold-S" transform="matrix(1 0 0 1 2290.45 696)">
   <path class="SFSymbolsPreviewWireframe" d="M15.7471-9.96094L46.2402 6.64062C48.3154 7.78809 50.7324 7.78809 52.7832 6.64062L83.2764-9.96094C87.3779-12.1826 89.2822-14.6484 89.2822-20.1904L89.2822-52.002C89.2822-56.4941 87.5977-59.4238 83.6182-61.5967L57.5195-75.9033C52.3682-78.7354 46.6797-78.7354 41.5283-75.9033L15.4297-61.5967C11.4258-59.4238 9.76562-56.4941 9.76562-52.002L9.76562-20.1904C9.76562-14.6484 11.6699-12.1826 15.7471-9.96094ZM21.4355-17.8467C19.6289-18.8721 18.9209-19.9951 18.9209-21.8262L18.9209-47.29L44.7266-33.0322L44.7266-4.8584ZM77.6123-17.8467L54.3213-4.8584L54.3213-33.0322L80.127-47.29L80.127-21.8262C80.127-19.9951 79.3945-18.8721 77.6123-17.8467ZM49.5117-41.4307L24.2188-55.3467L32.1533-59.79L57.4951-45.874ZM67.2852-51.1719L41.9678-65.0879L45.6299-67.1387C48.2422-68.5791 50.7812-68.6279 53.3936-67.1387L74.8291-55.3467Z"/>
  </g>
  <g id="Semibold-S" transform="matrix(1 0 0 1 1994.06 696)">
   <path class="SFSymbolsPreviewWireframe" d="M15.6671-10.1742L45.9025 6.5873C48.0577 7.79697 50.3592 7.79697 52.4811 6.5873L82.7165-10.1742C86.6759-12.3515 88.6513-14.684 88.6513-20.4304L88.6513-51.3977C88.6513-55.8721 86.9934-58.7484 83.1472-60.8946L57.0396-75.4501C51.8972-78.3177 46.5197-78.3177 41.3772-75.4501L15.2697-60.8946C11.3902-58.7484 9.76562-55.8721 9.76562-51.3977L9.76562-20.4304C9.76562-14.684 11.741-12.3515 15.6671-10.1742ZM20.6535-17.3046C18.7402-18.4011 17.9878-19.5952 17.9878-21.5418L17.9878-47.9032L44.9043-32.7567L44.9043-3.60537ZM77.7634-17.3046L53.5126-3.60537L53.5126-32.7567L80.4291-47.9032L80.4291-21.5418C80.4291-19.5952 79.6434-18.4011 77.7634-17.3046ZM49.1918-40.3198L22.7613-55.089L31.7534-60.2077L58.1972-45.403ZM66.983-50.2299L40.4837-64.999L44.9812-67.5475C47.8512-69.1567 50.5502-69.2056 53.4024-67.5475L75.6556-55.089Z"/>
  </g>
  <g id="Medium-S" transform="matrix(1 0 0 1 1697.59 696)">
   <path class="SFSymbolsPreviewWireframe" d="M15.6064-10.3359L45.6465 6.54688C47.8623 7.80371 50.0762 7.80371 52.252 6.54688L82.292-10.3359C86.1436-12.4795 88.1729-14.7109 88.1729-20.6123L88.1729-50.9395C88.1729-55.4004 86.5352-58.2363 82.79-60.3623L56.6758-75.1064C51.54-78.001 46.3984-78.001 41.2627-75.1064L15.1484-60.3623C11.3633-58.2363 9.76562-55.4004 9.76562-50.9395L9.76562-20.6123C9.76562-14.7109 11.7949-12.4795 15.6064-10.3359ZM20.0605-16.8936C18.0664-18.0439 17.2803-19.292 17.2803-21.3262L17.2803-48.3682L45.0391-32.5479L45.0391-2.65527ZM77.8779-16.8936L52.8994-2.65527L52.8994-32.5479L80.6582-48.3682L80.6582-21.3262C80.6582-19.292 79.832-18.0439 77.8779-16.8936ZM48.9492-39.4775L21.6562-54.8936L31.4502-60.5244L58.7295-45.0459ZM66.7539-49.5156L39.3584-64.9316L44.4893-67.8574C47.5547-69.5947 50.375-69.6436 53.4092-67.8574L76.2822-54.8936Z"/>
  </g>
  <g id="Regular-S" transform="matrix(1 0 0 1 1401.19 696)">
   <path class="SFSymbolsPreviewWireframe" d="M15.5273-10.5469L45.3125 6.49414C47.6074 7.8125 49.707 7.8125 51.9531 6.49414L81.7383-10.5469C85.4492-12.6465 87.5488-14.7461 87.5488-20.8496L87.5488-50.3418C87.5488-54.7852 85.9375-57.5684 82.3242-59.668L56.2012-74.6582C51.0742-77.5879 46.2402-77.5879 41.1133-74.6582L14.9902-59.668C11.3281-57.5684 9.76562-54.7852 9.76562-50.3418L9.76562-20.8496C9.76562-14.7461 11.8652-12.6465 15.5273-10.5469ZM19.2871-16.3574C17.1875-17.5781 16.3574-18.8965 16.3574-21.0449L16.3574-48.9746L45.2148-32.2754L45.2148-1.41602ZM78.0273-16.3574L52.0996-1.41602L52.0996-32.2754L80.957-48.9746L80.957-21.0449C80.957-18.8965 80.0781-17.5781 78.0273-16.3574ZM48.6328-38.3789L20.2148-54.6387L31.0547-60.9375L59.4238-44.5801ZM66.4551-48.584L37.8906-64.8438L43.8477-68.2617C47.168-70.166 50.1465-70.2148 53.418-68.2617L77.0996-54.6387Z"/>
  </g>
  <g id="Light-S" transform="matrix(1 0 0 1 1104.95 696)">
   <path class="SFSymbolsPreviewWireframe" d="M14.7857-11.5762L45.1309 5.49513C47.2139 6.66212 49.1318 6.67726 51.2114 5.49513L81.5566-11.5762C84.9043-13.4639 86.6104-15.397 86.6104-20.4258L86.6104-51.3711C86.6104-54.8911 85.2109-57.1294 82.3242-58.8052L54.5059-74.5522C50.272-76.9522 46.104-76.9522 41.8701-74.5522L14.0518-58.8052C11.1313-57.1294 9.76562-54.8911 9.76562-51.3711L9.76562-20.4258C9.76562-15.397 11.4565-13.4639 14.7857-11.5762ZM17.9248-15.9336C15.6284-17.2451 14.9497-18.4575 14.9497-20.6211L14.9497-50.2461L45.5024-32.9717L45.5024-0.432137ZM78.4512-15.9336L50.8584-0.432137L50.8584-32.9717L81.4263-50.2461L81.4263-20.6211C81.4263-18.4575 80.7139-17.2451 78.4512-15.9336ZM48.1636-37.6826L17.7324-54.7446L30.419-61.9517L60.8769-44.8071ZM66.334-47.8877L35.7412-64.98L44.2261-69.7451C46.9258-71.3013 49.4502-71.335 52.1162-69.7451L78.6284-54.7446Z"/>
  </g>
  <g id="Thin-S" transform="matrix(1 0 0 1 808.855 696)">
   <path class="SFSymbolsPreviewWireframe" d="M13.8047-12.9375L44.8906 4.17385C46.6934 5.14065 48.3711 5.1758 50.2305 4.17385L81.3164-12.9375C84.1836-14.5449 85.3692-16.2578 85.3692-19.8652L85.3692-52.7324C85.3692-55.0312 84.25-56.5488 82.3242-57.6641L52.2637-74.4121C49.211-76.1113 45.9238-76.1113 42.8711-74.4121L12.8106-57.6641C10.8711-56.5488 9.76562-55.0312 9.76562-52.7324L9.76562-19.8652C9.76562-16.2578 10.916-14.5449 13.8047-12.9375ZM16.1231-15.3731C13.5664-16.8047 13.0879-17.877 13.0879-20.0606L13.0879-51.9277L45.8828-33.8926L45.8828 0.869123ZM79.0117-15.3731L49.2168 0.869123L49.2168-33.8926L82.0469-51.9277L82.0469-20.0606C82.0469-17.877 81.5547-16.8047 79.0117-15.3731ZM47.543-36.7617L14.4493-54.8848L29.5781-63.293L62.7988-45.1074ZM66.1738-46.9668L32.8985-65.1602L44.7266-71.707C46.6055-72.8027 48.5293-72.8164 50.3946-71.707L80.6504-54.8848Z"/>
  </g>
  <g id="Ultralight-S" transform="matrix(1 0 0 1 512.462 696)">
   <path class="SFSymbolsPreviewWireframe" d="M13.3023-13.6347L44.7676 3.49709C46.4268 4.36136 47.9815 4.40677 49.728 3.49709L81.1934-13.6347C83.8145-15.0986 84.7334-16.6987 84.7334-19.5781L84.7334-53.4297C84.7334-55.103 83.7578-56.2515 82.3242-57.0796L51.1153-74.3403C48.6675-75.6807 45.8315-75.6807 43.3838-74.3403L12.1748-57.0796C10.7378-56.2515 9.76562-55.103 9.76562-53.4297L9.76562-19.5781C9.76562-16.6987 10.6392-15.0986 13.3023-13.6347ZM15.2002-15.0859C12.5103-16.5791 12.1343-17.5796 12.1343-19.7734L12.1343-52.789L46.0776-34.3642L46.0776 1.53562ZM79.2988-15.0859L48.376 1.53562L48.376-34.3642L82.3647-52.789L82.3647-19.7734C82.3647-17.5796 81.9853-16.5791 79.2988-15.0859ZM47.2251-36.2901L12.7676-54.9565L29.1475-63.98L63.7832-45.2612ZM66.0918-46.4951L31.4424-65.2524L44.9829-72.7119C46.4414-73.5718 48.0576-73.5752 49.5127-72.7119L81.686-54.9565Z"/>
  </g>
 </g>
</svg>
