<?xml version="1.0" encoding="UTF-8"?>
<!--Generator: Apple Native CoreSVG 341-->
<!DOCTYPE svg
PUBLIC "-//W3C//DTD SVG 1.1//EN"
       "http://www.w3.org/Graphics/SVG/1.1/DTD/svg11.dtd">
<svg version="1.1" xmlns="http://www.w3.org/2000/svg" xmlns:xlink="http://www.w3.org/1999/xlink" viewBox="0 0 3300 2200">
 <!--glyph: "100363", point size: 100.0, font version: "20.0d10e1", template writer version: "138.0.0"-->
 <style>.SFSymbolsPreviewWireframe {fill:none;opacity:1.0;stroke:black;stroke-width:0.5}
</style>
 <g id="Notes">
  <rect height="2200" id="artboard" style="fill:white;opacity:1" width="3300" x="0" y="0"/>
  <line style="fill:none;stroke:black;opacity:1;stroke-width:0.5;" x1="263" x2="3036" y1="292" y2="292"/>
  <text style="stroke:none;fill:black;font-family:sans-serif;font-size:13;font-weight:bold;" transform="matrix(1 0 0 1 263 322)">Weight/Scale Variations</text>
  <text style="stroke:none;fill:black;font-family:sans-serif;font-size:13;text-anchor:middle;" transform="matrix(1 0 0 1 559.711 322)">Ultralight</text>
  <text style="stroke:none;fill:black;font-family:sans-serif;font-size:13;text-anchor:middle;" transform="matrix(1 0 0 1 856.422 322)">Thin</text>
  <text style="stroke:none;fill:black;font-family:sans-serif;font-size:13;text-anchor:middle;" transform="matrix(1 0 0 1 1153.13 322)">Light</text>
  <text style="stroke:none;fill:black;font-family:sans-serif;font-size:13;text-anchor:middle;" transform="matrix(1 0 0 1 1449.84 322)">Regular</text>
  <text style="stroke:none;fill:black;font-family:sans-serif;font-size:13;text-anchor:middle;" transform="matrix(1 0 0 1 1746.56 322)">Medium</text>
  <text style="stroke:none;fill:black;font-family:sans-serif;font-size:13;text-anchor:middle;" transform="matrix(1 0 0 1 2043.27 322)">Semibold</text>
  <text style="stroke:none;fill:black;font-family:sans-serif;font-size:13;text-anchor:middle;" transform="matrix(1 0 0 1 2339.98 322)">Bold</text>
  <text style="stroke:none;fill:black;font-family:sans-serif;font-size:13;text-anchor:middle;" transform="matrix(1 0 0 1 2636.69 322)">Heavy</text>
  <text style="stroke:none;fill:black;font-family:sans-serif;font-size:13;text-anchor:middle;" transform="matrix(1 0 0 1 2933.4 322)">Black</text>
  <line style="fill:none;stroke:black;opacity:1;stroke-width:0.5;" x1="263" x2="3036" y1="1903" y2="1903"/>
  <g transform="matrix(0.2 0 0 0.2 263 1933)">
   <path d="m46.2402 4.15039c21.7773 0 39.4531-17.627 39.4531-39.4043s-17.6758-39.4043-39.4531-39.4043c-21.7285 0-39.4043 17.627-39.4043 39.4043s17.6758 39.4043 39.4043 39.4043Zm0-7.42188c-17.6758 0-31.9336-14.3066-31.9336-31.9824s14.2578-31.9824 31.9336-31.9824 31.9824 14.3066 31.9824 31.9824-14.3066 31.9824-31.9824 31.9824Zm-17.9688-31.9824c0 2.14844 1.51367 3.61328 3.75977 3.61328h10.498v10.5957c0 2.19727 1.46484 3.71094 3.61328 3.71094 2.24609 0 3.71094-1.51367 3.71094-3.71094v-10.5957h10.5957c2.19727 0 3.71094-1.46484 3.71094-3.61328 0-2.19727-1.51367-3.71094-3.71094-3.71094h-10.5957v-10.5469c0-2.24609-1.46484-3.75977-3.71094-3.75977-2.14844 0-3.61328 1.51367-3.61328 3.75977v10.5469h-10.498c-2.24609 0-3.75977 1.51367-3.75977 3.71094Z"/>
  </g>
  <g transform="matrix(0.2 0 0 0.2 281.506 1933)">
   <path d="m58.5449 14.5508c27.4902 0 49.8047-22.3145 49.8047-49.8047s-22.3145-49.8047-49.8047-49.8047-49.8047 22.3145-49.8047 49.8047 22.3145 49.8047 49.8047 49.8047Zm0-8.30078c-22.9492 0-41.5039-18.5547-41.5039-41.5039s18.5547-41.5039 41.5039-41.5039 41.5039 18.5547 41.5039 41.5039-18.5547 41.5039-41.5039 41.5039Zm-22.6562-41.5039c0 2.39258 1.66016 4.00391 4.15039 4.00391h14.3555v14.4043c0 2.44141 1.66016 4.15039 4.05273 4.15039 2.44141 0 4.15039-1.66016 4.15039-4.15039v-14.4043h14.4043c2.44141 0 4.15039-1.61133 4.15039-4.00391 0-2.44141-1.70898-4.15039-4.15039-4.15039h-14.4043v-14.3555c0-2.49023-1.70898-4.19922-4.15039-4.19922-2.39258 0-4.05273 1.70898-4.05273 4.19922v14.3555h-14.3555c-2.49023 0-4.15039 1.70898-4.15039 4.15039Z"/>
  </g>
  <g transform="matrix(0.2 0 0 0.2 304.924 1933)">
   <path d="m74.8535 28.3203c35.1074 0 63.623-28.4668 63.623-63.5742s-28.5156-63.623-63.623-63.623-63.5742 28.5156-63.5742 63.623 28.4668 63.5742 63.5742 63.5742Zm0-9.08203c-30.127 0-54.4922-24.3652-54.4922-54.4922s24.3652-54.4922 54.4922-54.4922 54.4922 24.3652 54.4922 54.4922-24.3652 54.4922-54.4922 54.4922Zm-28.8574-54.4922c0 2.58789 1.85547 4.39453 4.58984 4.39453h19.7266v19.7754c0 2.68555 1.85547 4.58984 4.44336 4.58984 2.68555 0 4.54102-1.85547 4.54102-4.58984v-19.7754h19.7754c2.68555 0 4.58984-1.80664 4.58984-4.39453 0-2.73438-1.85547-4.58984-4.58984-4.58984h-19.7754v-19.7266c0-2.73438-1.85547-4.63867-4.54102-4.63867-2.58789 0-4.44336 1.9043-4.44336 4.63867v19.7266h-19.7266c-2.73438 0-4.58984 1.85547-4.58984 4.58984Z"/>
  </g>
  <text style="stroke:none;fill:black;font-family:sans-serif;font-size:13;font-weight:bold;" transform="matrix(1 0 0 1 263 1953)">Design Variations</text>
  <text style="stroke:none;fill:black;font-family:sans-serif;font-size:13;" transform="matrix(1 0 0 1 263 1971)">Symbols are supported in up to nine weights and three scales.</text>
  <text style="stroke:none;fill:black;font-family:sans-serif;font-size:13;" transform="matrix(1 0 0 1 263 1989)">For optimal layout with text and other symbols, vertically align</text>
  <text style="stroke:none;fill:black;font-family:sans-serif;font-size:13;" transform="matrix(1 0 0 1 263 2007)">symbols with the adjacent text.</text>
  <line style="fill:none;stroke:#00AEEF;stroke-width:0.5;opacity:1.0;" x1="776" x2="776" y1="1919" y2="1933"/>
  <g transform="matrix(0.2 0 0 0.2 776 1933)">
   <path d="m16.5527 0.78125c2.58789 0 3.85742-0.976562 4.78516-3.71094l6.29883-17.2363h28.8086l6.29883 17.2363c0.927734 2.73438 2.19727 3.71094 4.73633 3.71094 2.58789 0 4.24805-1.5625 4.24805-4.00391 0-0.830078-0.146484-1.61133-0.537109-2.63672l-22.9004-60.9863c-1.12305-2.97852-3.125-4.49219-6.25-4.49219-3.02734 0-5.07812 1.46484-6.15234 4.44336l-22.9004 61.084c-0.390625 1.02539-0.537109 1.80664-0.537109 2.63672 0 2.44141 1.5625 3.95508 4.10156 3.95508Zm13.4766-28.3691 11.8652-32.8613h0.244141l11.8652 32.8613Z"/>
  </g>
  <line style="fill:none;stroke:#00AEEF;stroke-width:0.5;opacity:1.0;" x1="792.836" x2="792.836" y1="1919" y2="1933"/>
  <text style="stroke:none;fill:black;font-family:sans-serif;font-size:13;font-weight:bold;" transform="matrix(1 0 0 1 776 1953)">Margins</text>
  <text style="stroke:none;fill:black;font-family:sans-serif;font-size:13;" transform="matrix(1 0 0 1 776 1971)">Leading and trailing margins on the left and right side of each symbol</text>
  <text style="stroke:none;fill:black;font-family:sans-serif;font-size:13;" transform="matrix(1 0 0 1 776 1989)">can be adjusted by modifying the x-location of the margin guidelines.</text>
  <text style="stroke:none;fill:black;font-family:sans-serif;font-size:13;" transform="matrix(1 0 0 1 776 2007)">Modifications are automatically applied proportionally to all</text>
  <text style="stroke:none;fill:black;font-family:sans-serif;font-size:13;" transform="matrix(1 0 0 1 776 2025)">scales and weights.</text>
  <g transform="matrix(0.2 0 0 0.2 1289 1933)">
   <path d="m14.209 9.32617 8.49609 8.54492c4.29688 4.3457 9.22852 4.05273 13.8672-1.07422l53.4668-58.9355-4.83398-4.88281-53.0762 58.3984c-1.75781 2.00195-3.41797 2.49023-5.76172 0.146484l-5.85938-5.81055c-2.34375-2.29492-1.80664-4.00391 0.195312-5.81055l57.373-54.0039-4.88281-4.83398-57.959 54.4434c-4.93164 4.58984-5.32227 9.47266-1.02539 13.8184Zm32.0801-90.9668c-2.09961 2.05078-2.24609 4.93164-1.07422 6.88477 1.17188 1.80664 3.4668 2.97852 6.68945 2.14844 7.32422-1.70898 14.9414-2.00195 22.0703 2.68555l-2.92969 7.27539c-1.70898 4.15039-0.830078 7.08008 1.85547 9.81445l11.4746 11.5723c2.44141 2.44141 4.49219 2.53906 7.32422 2.05078l5.32227-0.976562 3.32031 3.36914-0.195312 2.7832c-0.195312 2.49023 0.439453 4.39453 2.88086 6.78711l3.80859 3.71094c2.39258 2.39258 5.46875 2.53906 7.8125 0.195312l14.5508-14.5996c2.34375-2.34375 2.24609-5.32227-0.146484-7.71484l-3.85742-3.80859c-2.39258-2.39258-4.24805-3.17383-6.64062-2.97852l-2.88086 0.244141-3.22266-3.17383 1.2207-5.61523c0.634766-2.83203-0.146484-5.0293-3.07617-7.95898l-10.9863-10.9375c-16.6992-16.6016-38.8672-16.2109-53.3203-1.75781Zm7.4707 1.85547c12.1582-8.88672 28.6133-7.37305 39.7461 3.75977l12.1582 12.0605c1.17188 1.17188 1.36719 2.09961 1.02539 3.80859l-1.61133 7.42188 7.51953 7.42188 4.93164-0.292969c1.26953-0.0488281 1.66016 0.0488281 2.63672 1.02539l2.88086 2.88086-12.207 12.207-2.88086-2.88086c-0.976562-0.976562-1.12305-1.36719-1.07422-2.68555l0.341797-4.88281-7.4707-7.42188-7.61719 1.26953c-1.61133 0.341797-2.34375 0.195312-3.56445-0.976562l-10.0098-10.0098c-1.26953-1.17188-1.41602-2.00195-0.634766-3.85742l4.39453-10.4492c-7.8125-7.27539-17.9688-10.4004-28.125-7.42188-0.78125 0.195312-1.07422-0.439453-0.439453-0.976562Z"/>
  </g>
  <text style="stroke:none;fill:black;font-family:sans-serif;font-size:13;font-weight:bold;" transform="matrix(1 0 0 1 1289 1953)">Exporting</text>
  <text style="stroke:none;fill:black;font-family:sans-serif;font-size:13;" transform="matrix(1 0 0 1 1289 1971)">Symbols should be outlined when exporting to ensure the</text>
  <text style="stroke:none;fill:black;font-family:sans-serif;font-size:13;" transform="matrix(1 0 0 1 1289 1989)">design is preserved when submitting to Xcode.</text>
  <text id="template-version" style="stroke:none;fill:black;font-family:sans-serif;font-size:13;text-anchor:end;" transform="matrix(1 0 0 1 3036 1933)">Template v.6.0</text>
  <text style="stroke:none;fill:black;font-family:sans-serif;font-size:13;text-anchor:end;" transform="matrix(1 0 0 1 3036 1951)">Requires Xcode 16 or greater</text>
  <text id="descriptive-name" style="stroke:none;fill:black;font-family:sans-serif;font-size:13;text-anchor:end;" transform="matrix(1 0 0 1 3036 1969)">Generated from bag</text>
  <text style="stroke:none;fill:black;font-family:sans-serif;font-size:13;text-anchor:end;" transform="matrix(1 0 0 1 3036 1987)">Typeset at 100.0 points</text>
  <text style="stroke:none;fill:black;font-family:sans-serif;font-size:13;" transform="matrix(1 0 0 1 263 726)">Small</text>
  <text style="stroke:none;fill:black;font-family:sans-serif;font-size:13;" transform="matrix(1 0 0 1 263 1156)">Medium</text>
  <text style="stroke:none;fill:black;font-family:sans-serif;font-size:13;" transform="matrix(1 0 0 1 263 1586)">Large</text>
 </g>
 <g id="Guides">
  <g id="H-reference" style="fill:#27AAE1;stroke:none;" transform="matrix(1 0 0 1 339 696)">
   <path d="M0.993654 0L3.63775 0L29.3281-67.1323L30.0303-67.1323L30.0303-70.459L28.1226-70.459ZM11.6885-24.4799L46.9815-24.4799L46.2315-26.7285L12.4385-26.7285ZM55.1196 0L57.7637 0L30.6382-70.459L29.4326-70.459L29.4326-67.1323Z"/>
  </g>
  <line id="Baseline-S" style="fill:none;stroke:#27AAE1;opacity:1;stroke-width:0.5;" x1="263" x2="3036" y1="696" y2="696"/>
  <line id="Capline-S" style="fill:none;stroke:#27AAE1;opacity:1;stroke-width:0.5;" x1="263" x2="3036" y1="625.541" y2="625.541"/>
  <g id="H-reference" style="fill:#27AAE1;stroke:none;" transform="matrix(1 0 0 1 339 1126)">
   <path d="M0.993654 0L3.63775 0L29.3281-67.1323L30.0303-67.1323L30.0303-70.459L28.1226-70.459ZM11.6885-24.4799L46.9815-24.4799L46.2315-26.7285L12.4385-26.7285ZM55.1196 0L57.7637 0L30.6382-70.459L29.4326-70.459L29.4326-67.1323Z"/>
  </g>
  <line id="Baseline-M" style="fill:none;stroke:#27AAE1;opacity:1;stroke-width:0.5;" x1="263" x2="3036" y1="1126" y2="1126"/>
  <line id="Capline-M" style="fill:none;stroke:#27AAE1;opacity:1;stroke-width:0.5;" x1="263" x2="3036" y1="1055.54" y2="1055.54"/>
  <g id="H-reference" style="fill:#27AAE1;stroke:none;" transform="matrix(1 0 0 1 339 1556)">
   <path d="M0.993654 0L3.63775 0L29.3281-67.1323L30.0303-67.1323L30.0303-70.459L28.1226-70.459ZM11.6885-24.4799L46.9815-24.4799L46.2315-26.7285L12.4385-26.7285ZM55.1196 0L57.7637 0L30.6382-70.459L29.4326-70.459L29.4326-67.1323Z"/>
  </g>
  <line id="Baseline-L" style="fill:none;stroke:#27AAE1;opacity:1;stroke-width:0.5;" x1="263" x2="3036" y1="1556" y2="1556"/>
  <line id="Capline-L" style="fill:none;stroke:#27AAE1;opacity:1;stroke-width:0.5;" x1="263" x2="3036" y1="1485.54" y2="1485.54"/>
  <line id="right-margin-Regular-M" style="fill:none;stroke:#00AEEF;stroke-width:0.5;opacity:1.0;" x1="1505.63" x2="1505.63" y1="1030.79" y2="1150.12"/>
  <line id="left-margin-Regular-M" style="fill:none;stroke:#00AEEF;stroke-width:0.5;opacity:1.0;" x1="1394.06" x2="1394.06" y1="1030.79" y2="1150.12"/>
 </g>
 <g id="Symbols">
  <g id="Black-L" transform="matrix(1 0 0 1 2856.86 1556)">
   <path class="SFSymbolsPreviewWireframe" d="M39.8556 33.819L113.814 33.819C128.396 33.819 137.004 25.2091 137.004 10.1098L137.004-54.7273C137.004-69.8266 128.375-78.4365 113.232-78.4365L39.8556-78.4365C24.7123-78.4365 16.084-69.829 16.084-54.7273L16.084 10.1098C16.084 25.2115 24.7123 33.819 39.8556 33.819ZM42.5864 13.8172C38.2704 13.8172 36.065 11.9078 36.065 7.27498L36.065-51.8925C36.065-56.5045 38.2704-58.4347 42.5864-58.4347L110.501-58.4347C114.792-58.4347 117.023-56.5045 117.023-51.8925L117.023 7.27498C117.023 11.9078 114.792 13.8172 111.083 13.8172ZM46.1183-75.0114L64.368-74.8738C64.368-82.8434 69.3479-88.3791 76.5334-88.3791C83.7385-88.3791 88.7197-82.8434 88.7197-74.8738L106.948-75.0114C106.948-92.0354 94.2819-104.339 76.5334-104.339C58.8057-104.339 46.1183-92.0354 46.1183-75.0114Z"/>
  </g>
  <g id="Heavy-L" transform="matrix(1 0 0 1 2561.29 1556)">
   <path class="SFSymbolsPreviewWireframe" d="M38.8315 32.3917L112.806 32.3917C126.61 32.3917 134.714 24.2759 134.714 9.73481L134.714-55.2387C134.714-69.7798 126.58-77.8956 111.967-77.8956L38.8315-77.8956C24.2188-77.8956 16.084-69.791 16.084-55.2387L16.084 9.73481C16.084 24.2871 24.2188 32.3917 38.8315 32.3917ZM40.9557 14.8611C36.118 14.8611 33.5844 12.5966 33.5844 7.45965L33.5844-52.9635C33.5844-58.0703 36.118-60.365 40.9557-60.365L109.843-60.365C114.628-60.365 117.214-58.0703 117.214-52.9635L117.214 7.45965C117.214 12.5966 114.628 14.8611 110.682 14.8611ZM46.3654-74.6999L62.5573-74.5804C62.5573-82.8225 67.7982-88.5927 75.3841-88.5927C82.9946-88.5927 88.2411-82.8225 88.2411-74.5804L104.403-74.6999C104.403-90.9435 92.2337-102.907 75.3841-102.907C58.5647-102.907 46.3654-90.9435 46.3654-74.6999Z"/>
  </g>
  <g id="Bold-L" transform="matrix(1 0 0 1 2265.99 1556)">
   <path class="SFSymbolsPreviewWireframe" d="M37.5412 30.6319L111.487 30.6319C124.389 30.6319 131.894 23.1008 131.894 9.28857L131.894-55.9285C131.894-69.7408 124.351-77.2718 110.437-77.2718L37.5412-77.2718C23.6265-77.2718 16.084-69.7672 16.084-55.9285L16.084 9.28857C16.084 23.1273 23.6265 30.6319 37.5412 30.6319ZM38.987 16.1521C33.4665 16.1521 30.5257 13.4421 30.5257 7.65286L30.5257-54.2928C30.5257-60.044 33.4665-62.792 38.987-62.792L108.991-62.792C114.42-62.792 117.452-60.044 117.452-54.2928L117.452 7.65286C117.452 13.4421 114.42 16.1521 110.041 16.1521ZM46.6578-74.338L60.2614-74.2416C60.2614-82.8366 65.8773-88.9361 73.97-88.9361C82.0874-88.9361 87.7165-82.8366 87.7165-74.2416L101.282-74.338C101.282-89.6284 89.7203-101.147 73.97-101.147C58.2576-101.147 46.6578-89.6284 46.6578-74.338Z"/>
  </g>
  <g id="Semibold-L" transform="matrix(1 0 0 1 1970.25 1556)">
   <path class="SFSymbolsPreviewWireframe" d="M36.6517 29.4186L110.577 29.4186C122.859 29.4186 129.95 22.2908 129.95 8.98094L129.95-56.404C129.95-69.7139 122.815-76.8417 109.382-76.8417L36.6517-76.8417C23.2182-76.8417 16.084-69.7508 16.084-56.404L16.084 8.98094C16.084 22.3277 23.2182 29.4186 36.6517 29.4186ZM37.6298 17.0421C31.6387 17.0421 28.4171 14.0249 28.4171 7.78605L28.4171-55.2091C28.4171-61.4047 31.6387-64.4652 37.6298-64.4652L108.404-64.4652C114.278-64.4652 117.616-61.4047 117.616-55.2091L117.616 7.78605C117.616 14.0249 114.278 17.0421 109.599 17.0421ZM46.8594-74.0885L58.6787-74.008C58.6787-82.8464 64.553-89.1727 72.9951-89.1727C81.462-89.1727 87.3548-82.8464 87.3548-74.008L99.1308-74.0885C99.1308-88.7217 87.9876-99.9331 72.9951-99.9331C58.0459-99.9331 46.8594-88.7217 46.8594-74.0885Z"/>
  </g>
  <g id="Medium-L" transform="matrix(1 0 0 1 1674.28 1556)">
   <path class="SFSymbolsPreviewWireframe" d="M35.9773 28.4987L109.888 28.4987C121.698 28.4987 128.475 21.6765 128.475 8.74768L128.475-56.7646C128.475-69.6935 121.651-76.5156 108.582-76.5156L35.9773-76.5156C22.9086-76.5156 16.084-69.7384 16.084-56.7646L16.084 8.74768C16.084 21.7215 22.9086 28.4987 35.9773 28.4987ZM36.6007 17.7169C30.2527 17.7169 26.8183 14.4669 26.8183 7.88704L26.8183-55.904C26.8183-62.4364 30.2527-65.7339 36.6007-65.7339L107.958-65.7339C114.169-65.7339 117.741-62.4364 117.741-55.904L117.741 7.88704C117.741 14.4669 114.169 17.7169 109.264 17.7169ZM47.0122-73.8993L57.4786-73.8308C57.4786-82.8538 63.5489-89.3522 72.2559-89.3522C80.9878-89.3522 87.0806-82.8538 87.0806-73.8308L97.4995-73.8993C97.4995-88.0343 86.6738-99.0131 72.2559-99.0131C57.8854-99.0131 47.0122-88.0343 47.0122-73.8993Z"/>
  </g>
  <g id="Regular-L" transform="matrix(1 0 0 1 1378.53 1556)">
   <path class="SFSymbolsPreviewWireframe" d="M35.0976 27.2988L108.988 27.2988C120.184 27.2988 126.552 20.8754 126.552 8.44343L126.552-57.2349C126.552-69.6669 120.131-76.0903 107.538-76.0903L35.0976-76.0903C22.5048-76.0903 16.084-69.7222 16.084-57.2349L16.084 8.44343C16.084 20.9307 22.5048 27.2988 35.0976 27.2988ZM35.2584 18.5971C28.4449 18.5971 24.7328 15.0434 24.7328 8.01877L24.7328-56.8103C24.7328-63.7821 28.4449-67.3886 35.2584-67.3886L107.378-67.3886C114.028-67.3886 117.903-63.7821 117.903-56.8103L117.903 8.01877C117.903 15.0434 114.028 18.5971 108.827 18.5971ZM47.2116-73.6526L55.9132-73.5998C55.9132-82.8634 62.2391-89.5863 71.2917-89.5863C80.3693-89.5863 86.7229-82.8634 86.7229-73.5998L95.3717-73.6526C95.3717-87.1376 84.9601-97.8131 71.2917-97.8131C57.676-97.8131 47.2116-87.1376 47.2116-73.6526Z"/>
  </g>
  <g id="Light-L" transform="matrix(1 0 0 1 1082.74 1556)">
   <path class="SFSymbolsPreviewWireframe" d="M34.067 26.1346L107.614 26.1346C118.6 26.1346 124.701 19.9402 124.701 8.25258L124.701-58.0747C124.701-69.7623 118.566-75.9567 106.718-75.9567L34.067-75.9567C22.2185-75.9567 16.084-69.8558 16.084-58.0747L16.084 8.25258C16.084 20.0337 22.2185 26.1346 34.067 26.1346ZM34.2278 19.4751C26.7082 19.4751 22.7098 15.5777 22.7098 7.92335L22.7098-57.7455C22.7098-65.3662 26.7082-69.2972 34.2278-69.2972L106.557-69.2972C113.856-69.2972 118.075-65.3662 118.075-57.7455L118.075 7.92335C118.075 15.5777 113.856 19.4751 107.453 19.4751ZM47.3261-73.5571L53.9856-73.5235C53.9856-83.1306 60.9032-90.3306 70.3756-90.3306C79.8349-90.3306 86.7992-83.1306 86.7992-73.5235L93.425-73.5571C93.425-86.4696 83.376-96.687 70.3756-96.687C57.4088-96.687 47.3261-86.4696 47.3261-73.5571Z"/>
  </g>
  <g id="Thin-L" transform="matrix(1 0 0 1 787.254 1556)">
   <path class="SFSymbolsPreviewWireframe" d="M32.7039 24.5948L105.797 24.5948C116.505 24.5948 122.252 18.7033 122.252 8.00016L122.252-59.1853C122.252-69.8885 116.496-75.78 105.632-75.78L32.7039-75.78C21.8399-75.78 16.084-70.0325 16.084-59.1853L16.084 8.00016C16.084 18.8473 21.8399 24.5948 32.7039 24.5948ZM32.8648 20.6362C24.4111 20.6362 20.0342 16.2845 20.0342 7.79714L20.0342-58.9823C20.0342-67.4612 24.4111-71.8214 32.8648-71.8214L105.472-71.8214C113.629-71.8214 118.302-67.4612 118.302-58.9823L118.302 7.79714C118.302 16.2845 113.629 20.6362 105.636 20.6362ZM47.4776-73.4309L51.4362-73.4225C51.4362-83.484 59.1362-91.3151 69.164-91.3151C79.1282-91.3151 86.9002-83.484 86.9002-73.4225L90.8504-73.4309C90.8504-85.5862 81.281-95.1978 69.164-95.1978C57.0554-95.1978 47.4776-85.5862 47.4776-73.4309Z"/>
  </g>
  <g id="Ultralight-L" transform="matrix(1 0 0 1 491.17 1556)">
   <path class="SFSymbolsPreviewWireframe" d="M32.0058 23.8062L104.866 23.8062C115.432 23.8062 120.998 18.0698 120.998 7.87087L120.998-59.7542C120.998-69.9532 115.436-75.6895 105.076-75.6895L32.0058-75.6895C21.646-75.6895 16.084-70.123 16.084-59.7542L16.084 7.87087C16.084 18.2397 21.646 23.8062 32.0058 23.8062ZM32.1666 21.2309C23.2346 21.2309 18.6637 16.6465 18.6637 7.73249L18.6637-59.6158C18.6637-68.5343 23.2346-73.1142 32.1666-73.1142L104.916-73.1142C113.512-73.1142 118.419-68.5343 118.419-59.6158L118.419 7.73249C118.419 16.6465 113.512 21.2309 104.705 21.2309ZM47.5551-73.3663L50.1304-73.3708C50.1304-83.665 58.2312-91.8193 68.5434-91.8193C78.7662-91.8193 86.9519-83.665 86.9519-73.3708L89.5316-73.3663C89.5316-85.1337 80.2079-94.435 68.5434-94.435C56.8744-94.435 47.5551-85.1337 47.5551-73.3663Z"/>
  </g>
  <g id="Black-M" transform="matrix(1 0 0 1 2873.24 1126)">
   <path class="SFSymbolsPreviewWireframe" d="M31.6184 19.3342L88.8557 19.3342C100.794 19.3342 107.859 12.2701 107.859 0.193163L107.859-50.0096C107.859-62.0865 100.789-69.1506 88.7016-69.1506L31.6184-69.1506C19.5311-69.1506 12.4609-62.0859 12.4609-50.0096L12.4609 0.193163C12.4609 12.2695 19.5311 19.3342 31.6184 19.3342ZM34.2553 1.99072C31.2643 1.99072 29.7989 0.770167 29.7989-2.47114L29.7989-47.3453C29.7989-50.5811 31.2643-51.8071 34.2553-51.8071L86.0648-51.8071C89.0514-51.8071 90.5212-50.5811 90.5212-47.3453L90.5212-2.47114C90.5212 0.770167 89.0514 1.99072 86.2188 1.99072ZM35.533-66.305L51.1635-66.1853C51.1635-72.1721 54.8776-76.324 60.1573-76.324C65.4427-76.324 69.1565-72.1721 69.1565-66.1853L84.7815-66.305C84.7815-80.0873 74.5898-89.8497 60.1573-89.8497C45.7302-89.8497 35.533-80.0873 35.533-66.305Z"/>
  </g>
  <g id="Heavy-M" transform="matrix(1 0 0 1 2577.56 1126)">
   <path class="SFSymbolsPreviewWireframe" d="M30.7123 18.0463L87.9978 18.0463C99.1943 18.0463 105.792 11.4441 105.792-0.1558L105.792-50.432C105.792-62.0319 99.1779-68.6341 87.5407-68.6341L30.7123-68.6341C19.075-68.6341 12.4609-62.0365 12.4609-50.432L12.4609-0.1558C12.4609 11.4487 19.075 18.0463 30.7123 18.0463ZM32.7562 2.9303C29.3203 2.9303 27.5605 1.39422 27.5605-2.28181L27.5605-48.306C27.5605-51.9656 29.3203-53.5181 32.7562-53.5181L85.4967-53.5181C88.9071-53.5181 90.6924-51.9656 90.6924-48.306L90.6924-2.28181C90.6924 1.39422 88.9071 2.9303 85.9539 2.9303ZM35.7639-66.0093L49.5713-65.9056C49.5713-72.1271 53.4859-76.4642 59.1183-76.4642C64.7647-76.4642 68.6816-72.1271 68.6816-65.9056L82.4726-66.0093C82.4726-79.0815 72.7337-88.5535 59.1183-88.5535C45.5192-88.5535 35.7639-79.0815 35.7639-66.0093Z"/>
  </g>
  <g id="Bold-M" transform="matrix(1 0 0 1 2282.01 1126)">
   <path class="SFSymbolsPreviewWireframe" d="M29.6986 16.6057L87.0382 16.6057C97.4044 16.6057 103.48 10.5201 103.48-0.546164L103.48-50.9045C103.48-61.9709 97.3758-68.0564 86.2419-68.0564L29.6986-68.0564C18.5648-68.0564 12.4609-61.9811 12.4609-50.9045L12.4609-0.546164C12.4609 10.5304 18.5648 16.6057 29.6986 16.6057ZM31.0794 3.98135C27.1457 3.98135 25.0566 2.09232 25.0566-2.07001L25.0566-49.3807C25.0566-53.5144 27.1457-55.4321 31.0794-55.4321L84.8612-55.4321C88.7457-55.4321 90.8839-53.5144 90.8839-49.3807L90.8839-2.07001C90.8839 2.09232 88.7457 3.98135 85.6575 3.98135ZM36.0223-65.6784L47.7902-65.5927C47.7902-72.0767 51.9291-76.6209 57.956-76.6209C64.0063-76.6209 68.1504-72.0767 68.1504-65.5927L79.8897-65.6784C79.8897-77.9564 70.6573-87.1035 57.956-87.1035C45.2832-87.1035 36.0223-77.9564 36.0223-65.6784Z"/>
  </g>
  <g id="Semibold-M" transform="matrix(1 0 0 1 1986.09 1126)">
   <path class="SFSymbolsPreviewWireframe" d="M28.9998 15.6125L86.3767 15.6125C96.1704 15.6125 101.886 9.88317 101.886-0.815279L101.886-51.2303C101.886-61.9288 96.1333-67.6581 85.3466-67.6581L28.9998-67.6581C18.2131-67.6581 12.4609-61.943 12.4609-51.2303L12.4609-0.815279C12.4609 9.89738 18.2131 15.6125 28.9998 15.6125ZM29.9233 4.70593C25.6466 4.70593 23.3305 2.57358 23.3305-1.92399L23.3305-50.1216C23.3305-54.5821 25.6466-56.7515 29.9233-56.7515L84.4231-56.7515C88.6344-56.7515 91.016-54.5821 91.016-50.1216L91.016-1.92399C91.016 2.57358 88.6344 4.70593 85.4532 4.70593ZM36.2004-65.4504L46.5622-65.377C46.5622-72.0419 50.8558-76.729 57.1547-76.729C63.4835-76.729 67.7842-72.0419 67.7842-65.377L78.109-65.4504C78.109-77.1808 69.2259-86.1039 57.1547-86.1039C45.1205-86.1039 36.2004-77.1808 36.2004-65.4504Z"/>
  </g>
  <g id="Medium-M" transform="matrix(1 0 0 1 1689.99 1126)">
   <path class="SFSymbolsPreviewWireframe" d="M28.47 14.8594L85.8751 14.8594C95.2347 14.8594 100.677 9.40018 100.677-1.01933L100.677-51.4773C100.677-61.8968 95.1913-67.3561 84.6677-67.3561L28.47-67.3561C17.9464-67.3561 12.4609-61.914 12.4609-51.4773L12.4609-1.01933C12.4609 9.41739 17.9464 14.8594 28.47 14.8594ZM29.0468 5.25534C24.5098 5.25534 22.0216 2.9385 22.0216-1.81328L22.0216-50.6834C22.0216-55.3917 24.5098-57.752 29.0468-57.752L84.0909-57.752C88.55-57.752 91.1161-55.3917 91.1161-50.6834L91.1161-1.81328C91.1161 2.9385 88.55 5.25534 85.2983 5.25534ZM36.3354-65.2774L45.6312-65.2134C45.6312-72.0156 50.042-76.811 56.5471-76.811C63.0871-76.811 67.5065-72.0156 67.5065-65.2134L76.7589-65.2774C76.7589-76.5927 68.1405-85.3459 56.5471-85.3459C44.9972-85.3459 36.3354-76.5927 36.3354-65.2774Z"/>
  </g>
  <g id="Regular-M" transform="matrix(1 0 0 1 1394.06 1126)">
   <path class="SFSymbolsPreviewWireframe" d="M27.7789 13.8772L85.2208 13.8772C94.0143 13.8772 99.1002 8.77021 99.1002-1.28549L99.1002-51.7995C99.1002-61.8552 93.9625-66.9622 83.7822-66.9622L27.7789-66.9622C17.5986-66.9622 12.4609-61.8763 12.4609-51.7995L12.4609-1.28549C12.4609 8.79131 17.5986 13.8772 27.7789 13.8772ZM27.9035 5.97197C23.0272 5.97197 20.3144 3.41447 20.3144-1.66887L20.3144-51.4161C20.3144-56.4477 23.0272-59.057 27.9035-59.057L83.6576-59.057C88.44-59.057 91.2467-56.4477 91.2467-51.4161L91.2467-1.66887C91.2467 3.41447 88.44 5.97197 85.0962 5.97197ZM36.5115-65.0518L44.4168-65.0001C44.4168-71.9812 48.9806-76.9178 55.7547-76.9178C62.57-76.9178 67.1444-71.9812 67.1444-65.0001L74.9978-65.0518C74.9978-75.8255 66.7248-84.3573 55.7547-84.3573C44.8363-84.3573 36.5115-75.8255 36.5115-65.0518Z"/>
  </g>
  <g id="Light-M" transform="matrix(1 0 0 1 1098.18 1126)">
   <path class="SFSymbolsPreviewWireframe" d="M26.8549 12.8334L83.9888 12.8334C92.5941 12.8334 97.4404 7.93177 97.4404-1.4566L97.4404-52.5524C97.4404-61.9408 92.5595-66.8424 83.0465-66.8424L26.8549-66.8424C17.3419-66.8424 12.4609-61.9961 12.4609-52.5524L12.4609-1.4566C12.4609 7.98709 17.3419 12.8334 26.8549 12.8334ZM26.9795 6.75907C21.4701 6.75907 18.5006 3.89358 18.5006-1.75442L18.5006-52.2546C18.5006-57.8679 21.4701-60.7681 26.9795-60.7681L82.9219-60.7681C88.286-60.7681 91.4007-57.8679 91.4007-52.2546L91.4007-1.75442C91.4007 3.89358 88.286 6.75907 83.8642 6.75907ZM36.6142-64.9663L42.6886-64.9316C42.6886-72.2208 47.7828-77.5852 54.9334-77.5852C62.0909-77.5852 67.2128-72.2208 67.2128-64.9316L73.2525-64.9663C73.2525-75.2267 65.3046-83.3477 54.9334-83.3477C44.5967-83.3477 36.6142-75.2267 36.6142-64.9663Z"/>
  </g>
  <g id="Thin-M" transform="matrix(1 0 0 1 802.569 1126)">
   <path class="SFSymbolsPreviewWireframe" d="M25.6328 11.453L82.3594 11.453C90.7158 11.453 95.2453 6.82287 95.2453-1.68291L95.2453-53.5481C95.2453-62.0539 90.7037-66.684 82.0734-66.684L25.6328-66.684C17.0024-66.684 12.4609-62.1545 12.4609-53.5481L12.4609-1.68291C12.4609 6.92346 17.0024 11.453 25.6328 11.453ZM25.7574 7.80008C19.4107 7.80008 16.1018 4.52723 16.1018-1.86758L16.1018-53.3635C16.1018-59.7463 19.4107-63.0311 25.7574-63.0311L81.9487-63.0311C88.0823-63.0311 91.6044-59.7463 91.6044-53.3635L91.6044-1.86758C91.6044 4.52723 88.0823 7.80008 82.2348 7.80008ZM36.75-64.8531L40.4029-64.8411C40.4029-72.5376 46.1987-78.4678 53.8471-78.4678C61.4572-78.4678 67.3033-72.5376 67.3033-64.8411L70.9442-64.8531C70.9442-74.4346 63.4263-82.0125 53.8471-82.0125C44.2799-82.0125 36.75-74.4346 36.75-64.8531Z"/>
  </g>
  <g id="Ultralight-M" transform="matrix(1 0 0 1 506.42 1126)">
   <path class="SFSymbolsPreviewWireframe" d="M25.0069 10.7459L81.5248 10.7459C89.7537 10.7459 94.1209 6.2549 94.1209-1.79882L94.1209-54.0581C94.1209-62.1119 89.7533-66.6028 81.5749-66.6028L25.0069-66.6028C16.8286-66.6028 12.4609-62.2356 12.4609-54.0581L12.4609-1.79882C12.4609 6.37867 16.8286 10.7459 25.0069 10.7459ZM25.1315 8.33328C18.3559 8.33328 14.8731 4.85179 14.8731-1.92553L14.8731-53.9314C14.8731-60.7083 18.3559-64.1902 25.1315-64.1902L81.4503-64.1902C87.978-64.1902 91.7087-60.7083 91.7087-53.9314L91.7087-1.92553C91.7087 4.85179 87.978 8.33328 81.4002 8.33328ZM36.8195-64.7952L39.2322-64.7947C39.2322-72.6999 45.3873-78.9198 53.2907-78.9198C61.1327-78.9198 67.3497-72.6999 67.3497-64.7947L69.7619-64.7952C69.7619-74.0289 62.4642-81.3286 53.2907-81.3286C44.1176-81.3286 36.8195-74.0289 36.8195-64.7952Z"/>
  </g>
  <g id="Black-S" transform="matrix(1 0 0 1 2885.99 696)">
   <path class="SFSymbolsPreviewWireframe" d="M25 7.86133L69.8242 7.86133C79.3945 7.86133 85.0586 2.19727 85.0586-7.37305L85.0586-46.7285C85.0586-56.2988 79.3945-61.9629 69.8242-61.9629L25-61.9629C15.4297-61.9629 9.76562-56.2988 9.76562-46.7285L9.76562-7.37305C9.76562 2.19727 15.4297 7.86133 25 7.86133ZM27.2461-6.29883C25-6.29883 23.9258-7.17773 23.9258-9.61914L23.9258-44.4824C23.9258-46.9238 25-47.8027 27.2461-47.8027L67.5781-47.8027C69.8242-47.8027 70.8984-46.9238 70.8984-44.4824L70.8984-9.61914C70.8984-7.17773 69.8242-6.29883 67.5781-6.29883ZM27.7832-59.668L40.4785-59.5703C40.4785-64.209 43.3594-67.4316 47.4121-67.4316C51.4648-67.4316 54.3457-64.209 54.3457-59.5703L67.041-59.668C67.041-70.6543 58.9355-78.3691 47.4121-78.3691C35.8887-78.3691 27.7832-70.6543 27.7832-59.668Z"/>
  </g>
  <g id="Heavy-S" transform="matrix(1 0 0 1 2590.05 696)">
   <path class="SFSymbolsPreviewWireframe" d="M24.3431 6.89327L69.248 6.89327C78.2075 6.89327 83.5028 1.59799 83.5028-7.64963L83.5028-46.9936C83.5028-56.2412 78.196-61.5365 68.9253-61.5365L24.3431-61.5365C15.0724-61.5365 9.76562-56.2412 9.76562-46.9936L9.76562-7.64963C9.76562 1.59799 15.0724 6.89327 24.3431 6.89327ZM26.0821-5.59584C23.5364-5.59584 22.2432-6.70523 22.2432-9.44627L22.2432-45.1969C22.2432-47.9265 23.5364-49.0474 26.0821-49.0474L67.1863-49.0474C69.7205-49.0474 71.0252-47.9265 71.0252-45.1969L71.0252-9.44627C71.0252-6.70523 69.7205-5.59584 67.509-5.59584ZM27.9676-59.426L39.3376-59.3398C39.3376-64.1398 42.3222-67.4662 46.6284-67.4662C50.9462-67.4662 53.9308-64.1398 53.9308-59.3398L65.2893-59.426C65.2893-69.8706 57.5296-77.3896 46.6284-77.3896C35.7389-77.3896 27.9676-69.8706 27.9676-59.426Z"/>
  </g>
  <g id="Bold-S" transform="matrix(1 0 0 1 2294.21 696)">
   <path class="SFSymbolsPreviewWireframe" d="M23.6084 5.81055L68.6035 5.81055C76.8799 5.81055 81.7627 0.927734 81.7627-7.95898L81.7627-47.29C81.7627-56.1768 76.8555-61.0596 67.9199-61.0596L23.6084-61.0596C14.6729-61.0596 9.76562-56.1768 9.76562-47.29L9.76562-7.95898C9.76562 0.927734 14.6729 5.81055 23.6084 5.81055ZM24.7803-4.80957C21.8994-4.80957 20.3613-6.17676 20.3613-9.25293L20.3613-45.9961C20.3613-49.0479 21.8994-50.4395 24.7803-50.4395L66.748-50.4395C69.6045-50.4395 71.167-49.0479 71.167-45.9961L71.167-9.25293C71.167-6.17676 69.6045-4.80957 67.4316-4.80957ZM28.1738-59.1553L38.0615-59.082C38.0615-64.0625 41.1621-67.5049 45.752-67.5049C50.3662-67.5049 53.4668-64.0625 53.4668-59.082L63.3301-59.1553C63.3301-68.9941 55.957-76.2939 45.752-76.2939C35.5713-76.2939 28.1738-68.9941 28.1738-59.1553Z"/>
  </g>
  <g id="Semibold-S" transform="matrix(1 0 0 1 1998.1 696)">
   <path class="SFSymbolsPreviewWireframe" d="M23.1019 5.06406L68.1592 5.06406C75.9646 5.06406 80.563 0.465625 80.563-8.17227L80.563-47.4944C80.563-56.1323 75.9313-60.7308 67.2268-60.7308L23.1019-60.7308C14.3974-60.7308 9.76562-56.1323 9.76562-47.4944L9.76562-8.17227C9.76562 0.465625 14.3974 5.06406 23.1019 5.06406ZM23.8827-4.26748C20.7708-4.26748 19.0639-5.8124 19.0639-9.11963L19.0639-46.5471C19.0639-49.821 20.7708-51.3992 23.8827-51.3992L66.4459-51.3992C69.5245-51.3992 71.2647-49.821 71.2647-46.5471L71.2647-9.11963C71.2647-5.8124 69.5245-4.26748 67.3783-4.26748ZM28.316-58.9687L37.1817-58.9043C37.1817-64.0092 40.3623-67.5315 45.1477-67.5315C49.9663-67.5315 53.1469-64.0092 53.1469-58.9043L61.9793-58.9687C61.9793-68.3898 54.8729-75.5386 45.1477-75.5386C35.4558-75.5386 28.316-68.3898 28.316-58.9687Z"/>
  </g>
  <g id="Medium-S" transform="matrix(1 0 0 1 1701.85 696)">
   <path class="SFSymbolsPreviewWireframe" d="M22.7178 4.49805L67.8223 4.49805C75.2705 4.49805 79.6533 0.115234 79.6533-8.33398L79.6533-47.6494C79.6533-56.0986 75.2305-60.4814 66.7012-60.4814L22.7178-60.4814C14.1885-60.4814 9.76562-56.0986 9.76562-47.6494L9.76562-8.33398C9.76562 0.115234 14.1885 4.49805 22.7178 4.49805ZM23.2021-3.85645C19.915-3.85645 18.0801-5.53613 18.0801-9.01855L18.0801-46.9648C18.0801-50.4072 19.915-52.127 23.2021-52.127L66.2168-52.127C69.4639-52.127 71.3389-50.4072 71.3389-46.9648L71.3389-9.01855C71.3389-5.53613 69.4639-3.85645 67.3379-3.85645ZM28.4238-58.8271L36.5146-58.7695C36.5146-63.9688 39.7559-67.5518 44.6895-67.5518C49.6631-67.5518 52.9043-63.9688 52.9043-58.7695L60.9551-58.8271C60.9551-67.9316 54.0508-74.9658 44.6895-74.9658C35.3682-74.9658 28.4238-67.9316 28.4238-58.8271Z"/>
  </g>
  <g id="Regular-S" transform="matrix(1 0 0 1 1405.73 696)">
   <path class="SFSymbolsPreviewWireframe" d="M22.2168 3.75977L67.3828 3.75977C74.3652 3.75977 78.4668-0.341797 78.4668-8.54492L78.4668-47.8516C78.4668-56.0547 74.3164-60.1562 66.0156-60.1562L22.2168-60.1562C13.916-60.1562 9.76562-56.0547 9.76562-47.8516L9.76562-8.54492C9.76562-0.341797 13.916 3.75977 22.2168 3.75977ZM22.3145-3.32031C18.7988-3.32031 16.7969-5.17578 16.7969-8.88672L16.7969-47.5098C16.7969-51.1719 18.7988-53.0762 22.3145-53.0762L65.918-53.0762C69.3848-53.0762 71.4355-51.1719 71.4355-47.5098L71.4355-8.88672C71.4355-5.17578 69.3848-3.32031 67.2852-3.32031ZM28.5645-58.6426L35.6445-58.5938C35.6445-63.916 38.9648-67.5781 44.0918-67.5781C49.2676-67.5781 52.5879-63.916 52.5879-58.5938L59.6191-58.6426C59.6191-67.334 52.9785-74.2188 44.0918-74.2188C35.2539-74.2188 28.5645-67.334 28.5645-58.6426Z"/>
  </g>
  <g id="Light-S" transform="matrix(1 0 0 1 1109.75 696)">
   <path class="SFSymbolsPreviewWireframe" d="M21.3994 2.83643L66.293 2.83643C73.1089 2.83643 76.9985-1.08349 76.9985-8.69629L76.9985-48.5176C76.9985-56.1304 73.0752-60.0503 65.3648-60.0503L21.3994-60.0503C13.689-60.0503 9.76562-56.1606 9.76562-48.5176L9.76562-8.69629C9.76562-1.05322 13.689 2.83643 21.3994 2.83643ZM21.4971-2.62403C17.4214-2.62403 15.1924-4.75196 15.1924-8.9624L15.1924-48.2515C15.1924-52.4282 17.4214-54.5898 21.4971-54.5898L65.2671-54.5898C69.2485-54.5898 71.5718-52.4282 71.5718-48.2515L71.5718-8.9624C71.5718-4.75196 69.2485-2.62403 66.1953-2.62403ZM28.6553-58.5669L34.1157-58.5332C34.1157-64.1279 37.9053-68.1685 43.3652-68.1685C48.8438-68.1685 52.6484-64.1279 52.6484-58.5332L58.0752-58.5669C58.0752-66.8042 51.7222-73.3257 43.3652-73.3257C35.042-73.3257 28.6553-66.8042 28.6553-58.5669Z"/>
  </g>
  <g id="Thin-S" transform="matrix(1 0 0 1 814.011 696)">
   <path class="SFSymbolsPreviewWireframe" d="M20.3184 1.61525L64.8516 1.61525C71.4473 1.61525 75.0567-2.06444 75.0567-8.89648L75.0567-49.3984C75.0567-56.2305 71.4336-59.9102 64.5039-59.9102L20.3184-59.9102C13.3887-59.9102 9.76562-56.3008 9.76562-49.3984L9.76562-8.89648C9.76562-1.99413 13.3887 1.61525 20.3184 1.61525ZM20.416-1.70314C15.5996-1.70314 13.0703-4.19141 13.0703-9.0625L13.0703-49.2324C13.0703-54.0898 15.5996-56.5918 20.416-56.5918L64.4063-56.5918C69.0684-56.5918 71.752-54.0898 71.752-49.2324L71.752-9.0625C71.752-4.19141 69.0684-1.70314 64.7539-1.70314ZM28.7754-58.4668L32.0938-58.4531C32.0938-64.4082 36.5039-68.9492 42.4043-68.9492C48.2832-68.9492 52.7285-64.4082 52.7285-58.4531L56.0332-58.4668C56.0332-66.1035 50.0606-72.1445 42.4043-72.1445C34.7617-72.1445 28.7754-66.1035 28.7754-58.4668Z"/>
  </g>
  <g id="Ultralight-S" transform="matrix(1 0 0 1 517.797 696)">
   <path class="SFSymbolsPreviewWireframe" d="M19.7647 0.989768L64.1133 0.989768C70.5962 0.989768 74.062-2.56688 74.062-8.99902L74.062-49.8496C74.062-56.2817 70.5928-59.8384 64.063-59.8384L19.7647-59.8384C13.2349-59.8384 9.76562-56.3726 9.76562-49.8496L9.76562-8.99902C9.76562-2.47606 13.2349 0.989768 19.7647 0.989768ZM19.8623-1.23146C14.6665-1.23146 11.9834-3.90431 11.9834-9.11377L11.9834-49.7348C11.9834-54.9409 14.6665-57.6172 19.8623-57.6172L63.9653-57.6172C68.9761-57.6172 71.8442-54.9409 71.8442-49.7348L71.8442-9.11377C71.8442-3.90431 68.9761-1.23146 64.0157-1.23146ZM28.8369-58.4155L31.0581-58.4121C31.0581-64.5518 35.7862-69.3491 41.9121-69.3491C47.9961-69.3491 52.7695-64.5518 52.7695-58.4121L54.9873-58.4155C54.9873-65.7446 49.2095-71.5396 41.9121-71.5396C34.6182-71.5396 28.8369-65.7446 28.8369-58.4155Z"/>
  </g>
 </g>
</svg>
